<?xml version="1.0" encoding="UTF-8" standalone="no"?><!DOCTYPE svg PUBLIC "-//W3C//DTD SVG 1.1//EN" "http://www.w3.org/Graphics/SVG/1.1/DTD/svg11.dtd"><svg width="100%" height="100%" viewBox="0 0 900 400" version="1.1" xmlns="http://www.w3.org/2000/svg" xmlns:xlink="http://www.w3.org/1999/xlink" xml:space="preserve" xmlns:serif="http://www.serif.com/" style="fill-rule:evenodd;clip-rule:evenodd;stroke-linecap:square;stroke-miterlimit:1.41421;"><g><g id="rest-smaller"><path d="M61.638,164.046l0,12.197l-9.327,0l-7.174,7.174l2.869,38.025l-10.043,9.327l10.043,9.327l-2.869,38.025l7.174,7.174l9.327,0l0,12.197l-15.067,0l-14.348,-15.784l2.87,-38.742l-8.61,-7.892l0,-8.61l8.61,-7.892l-2.87,-38.743l14.348,-15.783l15.067,0Z" style="fill:#1ab88a;"/><path d="M484.744,164.046l0,12.197l9.327,0l7.174,7.174l-2.87,38.025l10.045,9.327l-10.045,9.327l2.87,38.025l-7.174,7.174l-9.327,0l0,12.197l15.066,0l14.35,-15.784l-2.87,-38.742l8.609,-7.892l0,-8.61l-8.609,-7.892l2.87,-38.743l-14.35,-15.783l-15.066,0Z" style="fill:#1ab88a;"/><path d="M184.61,193.369l0,29.503l-14.156,14.155l-7.748,0l16.688,33.078l9.536,0l0,12.815l-32.035,0l0,-12.815l8.94,0l-16.689,-33.078l-15.197,0l0,33.078l9.089,0l0,12.815l-32.782,0l0,-12.815l10.878,0l0,-78.524l-10.878,0l0,-12.963l59.751,0l14.603,14.751Zm-50.661,-1.788l0,35.612l30.396,0l7.45,-7.45l0,-20.711l-7.45,-7.451l-30.396,0Z" style="fill:#029fc6;fill-rule:nonzero;"/><path d="M271.924,205.587l-10.877,0l0,-14.006l-38.74,0l0,31.737l26.373,0l0,-7.003l9.238,0l0,23.692l-9.238,0l0,-7.003l-26.373,0l0,37.101l38.889,0l0,-14.005l10.878,0l0,26.82l-73.458,0l0,-12.815l10.877,0l0,-78.524l-10.877,0l0,-12.963l73.308,0l0,26.969Z" style="fill:#029fc6;fill-rule:nonzero;"/><path d="M349.853,193.369l0,14.751l-12.814,0l0,-9.088l-7.599,-7.6l-24.288,0l-7.599,7.6l0,18.475l5.662,5.365l35.761,0l11.92,11.622l0,32.93l-15.497,15.496l-35.164,0l-15.496,-15.496l0,-19.073l12.814,0l0,13.709l8.046,8.045l24.437,0l7.897,-8.045l0,-21.606l-5.364,-5.513l-35.761,0l-12.069,-11.92l0,-29.652l14.751,-14.751l35.761,0l14.602,14.751Z" style="fill:#029fc6;fill-rule:nonzero;"/><path d="M436.125,209.164l-11.026,0l0,-18.328l-20.413,0l0,79.269l12.367,0l0,12.815l-37.549,0l0,-12.815l12.368,0l0,-79.269l-20.414,0l0,18.328l-11.026,0l0,-30.546l75.693,0l0,30.546Z" style="fill:#029fc6;fill-rule:nonzero;"/></g><g id="rocket"><path d="M99.561,96.496c-9.42,5.488 -32.014,20.525 -40.555,42.725c-0.269,0.701 -0.158,1.498 0.283,2.103c0.264,0.35 0.624,0.609 1.018,0.753c0.288,0.106 0.605,0.144 0.922,0.125l27.645,-2.141c0.024,-0.091 0.019,-0.187 0.048,-0.274l10.639,-43.291Z" style="fill:#1f1f1f;fill-rule:nonzero;"/><path d="M170.867,179.267c7.446,-22.57 -0.298,-48.52 -3.918,-58.492l-19.771,40.224c-0.024,0.067 -0.058,0.1 -0.091,0.168l19.944,19.54c0.225,0.226 0.504,0.394 0.787,0.499c0.038,0.029 0.067,0.039 0.077,0.039c1.142,0.413 2.41,-0.178 2.823,-1.311c0.096,-0.226 0.129,-0.451 0.149,-0.667Z" style="fill:#1f1f1f;fill-rule:nonzero;"/><path d="M182.653,65.822c2.502,-13.338 1.1,-32.633 -6.64,-43.426c-0.187,-0.25 -0.336,-0.533 -0.513,-0.773c-0.471,-0.6 -0.985,-1.104 -1.493,-1.637c-0.308,-0.327 -0.601,-0.716 -0.918,-1.023c-0.364,-0.331 -0.768,-0.576 -1.142,-0.883c-0.523,-0.423 -1.042,-0.884 -1.604,-1.244c-0.264,-0.163 -0.571,-0.259 -0.835,-0.403c-0.739,-0.413 -1.484,-0.826 -2.29,-1.119c-0.581,-0.211 -1.181,-0.302 -1.791,-0.446c-0.523,-0.125 -1.042,-0.312 -1.584,-0.399c-0.845,-0.11 -1.705,-0.11 -2.579,-0.105c-0.297,0 -0.59,-0.053 -0.893,-0.039c-0.701,0.039 -1.392,0.183 -2.088,0.288c-0.499,0.077 -0.979,0.092 -1.474,0.202c-0.298,0.062 -0.595,0.187 -0.903,0.264c-9.275,2.377 -18.868,10.231 -26.007,18.94c-1.2,1.45 -2.295,2.939 -3.332,4.417c-2.175,3.087 -4.028,6.16 -5.372,9.055c-0.505,1.066 -0.937,2.098 -1.302,3.102l-22.454,91.398c-0.485,1.676 0.413,3.438 2.04,4.033l35.61,12.953c1.642,0.6 3.461,-0.177 4.162,-1.771l41.621,-84.653c0.715,-1.969 1.306,-4.239 1.781,-6.731Zm-42.173,22.944c-6.687,-2.434 -10.139,-9.828 -7.705,-16.52c2.434,-6.688 9.832,-10.14 16.535,-7.697c6.678,2.435 10.135,9.828 7.701,16.516c-2.444,6.683 -9.838,10.126 -16.531,7.701Z" style="fill:#1f1f1f;fill-rule:nonzero;"/><path d="M121.343,168.69c-5.19,6.611 -10.351,11.316 -13.635,10.116c-3.293,-1.2 -4.23,-8.109 -3.956,-16.521c-4.287,0.404 -7.821,2.756 -9.78,8.128c-3.264,8.974 -9.659,47.166 -1.469,50.157c8.186,2.972 27.851,-30.39 31.116,-39.364c1.949,-5.372 0.739,-9.448 -2.276,-12.516Z" style="fill:#1f1f1f;fill-rule:nonzero;"/></g><g><rect x="685.873" y="160.261" width="121.861" height="17.271" style="fill:#ffb531;fill-rule:nonzero;"/><path d="M685.873,174.653l0,-26.867l-75.803,0l0,165.041l197.665,0l0,-138.174l-121.862,0Z" style="fill:#ffcb31;fill-rule:nonzero;"/><path d="M685.873,174.653l1.92,0l0,-26.867c0,-0.505 -0.205,-0.999 -0.563,-1.357c-0.357,-0.357 -0.852,-0.562 -1.357,-0.562l-75.803,0c-0.505,0 -1,0.205 -1.357,0.562c-0.357,0.358 -0.562,0.852 -0.562,1.357l0,165.041c0,0.505 0.205,0.999 0.562,1.356c0.357,0.358 0.852,0.563 1.357,0.563l197.664,0c0.506,0 1,-0.205 1.357,-0.563c0.358,-0.357 0.562,-0.851 0.562,-1.356l0,-138.174c0,-0.505 -0.204,-0.999 -0.562,-1.357c-0.357,-0.357 -0.851,-0.562 -1.356,-0.562l-121.862,0l0,1.919l1.92,0l-1.92,0l0,1.919l119.942,0l0,134.336l-193.826,0l0,-125.345l0,-11.199l0,-24.659l71.965,0l0,24.948c0,0.506 0.205,1 0.562,1.357c0.357,0.357 0.852,0.562 1.357,0.562l0,-1.919Z" style="fill:#231f20;fill-rule:nonzero;"/><path d="M685.873,172.734l-18.231,0l0,3.838l18.231,0" style="fill:#231f20;fill-rule:nonzero;"/><path d="M765.515,266.769l0,-41.26l14.413,0l-24.575,-32.796l-24.573,32.796l12.666,0l0,41.26" style="fill:#fff;fill-rule:nonzero;"/><path d="M767.434,266.769l0,-39.341l12.494,0c0.729,0 1.391,-0.409 1.716,-1.061c0.327,-0.651 0.257,-1.426 -0.18,-2.009l-24.575,-32.796c-0.361,-0.482 -0.933,-0.768 -1.536,-0.768c-0.602,0 -1.174,0.286 -1.536,0.768l-24.573,32.796c-0.436,0.583 -0.506,1.358 -0.18,2.009c0.325,0.652 0.988,1.061 1.716,1.061l10.746,0l0,39.341l3.839,0l0,-41.26c0,-0.505 -0.205,-1 -0.563,-1.357c-0.357,-0.358 -0.851,-0.562 -1.356,-0.562l-8.83,0l20.737,-27.676l20.739,27.675l-10.577,0.001c-0.506,0 -1,0.204 -1.357,0.562c-0.357,0.357 -0.562,0.852 -0.562,1.357l0,41.26l3.838,0Z" style="fill:#231f20;fill-rule:nonzero;"/><path d="M798.139,206.318l0,41.26l-14.585,0l24.575,32.796l24.573,-32.796l-12.494,0l0,-41.26" style="fill:#fff;fill-rule:nonzero;"/><path d="M796.22,206.318l0,39.341l-12.666,0c-0.729,0 -1.391,0.409 -1.716,1.061c-0.327,0.651 -0.257,1.426 0.18,2.009l24.575,32.795c0.361,0.483 0.933,0.769 1.536,0.769c0.602,0 1.174,-0.286 1.536,-0.769l24.572,-32.795c0.437,-0.583 0.507,-1.358 0.181,-2.009c-0.326,-0.652 -0.988,-1.061 -1.716,-1.061l-10.575,0l0,-39.341l-3.838,0l0,41.26c0,0.505 0.205,1 0.562,1.357c0.358,0.357 0.852,0.562 1.357,0.562l8.658,0l-20.737,27.676l-20.739,-27.676l10.749,0c0.505,0 0.999,-0.205 1.357,-0.562c0.357,-0.357 0.562,-0.852 0.562,-1.357l0,-41.26l-3.838,0Z" style="fill:#231f20;fill-rule:nonzero;"/><path d="M789.503,208.237l38.382,0l0,-3.838l-38.382,0" style="fill:#231f20;fill-rule:nonzero;"/><path d="M735.769,268.688l36.463,0l0,-3.838l-36.463,0" style="fill:#231f20;fill-rule:nonzero;"/><path d="M810.613,261.011l0,-3.838l-3.838,0l0,3.838l3.838,0Zm0,-7.675l0,-3.839l-3.838,0l0,3.839l3.838,0Zm0,-7.677l0,-3.838l-3.838,0l0,3.838l3.838,0Zm0,-7.676l0,-3.838l-3.838,0l0,3.838l3.838,0Zm0,-7.677l0,-3.838l-3.838,0l0,3.838l3.838,0Zm0,-7.676l0,-3.838l-3.838,0l0,3.838l3.838,0Z" style="fill:#231f20;fill-rule:nonzero;"/><path d="M756.879,258.133l0,-3.838l-3.839,0l0,3.838l3.839,0Zm0,-7.676l0,-3.838l-3.839,0l0,3.838l3.839,0Zm0,-7.676l0,-3.839l-3.839,0l0,3.839l3.839,0Zm0,-7.677l0,-3.838l-3.839,0l0,3.838l3.839,0Zm0,-7.676l0,-3.838l-3.839,0l0,3.838l3.839,0Zm0,-7.676l0,-3.838l-3.839,0l0,3.838l3.839,0Z" style="fill:#231f20;fill-rule:nonzero;"/><g><path d="M607.596,283.352c6.588,0 12.696,1.976 17.74,5.462c3.422,-3.891 8.125,-6.637 13.461,-7.525c-0.222,-1.497 -0.337,-3.036 -0.337,-4.594c0,-17.27 14.002,-31.276 31.27,-31.276c17.269,0 31.273,13.994 31.273,31.266c0,2.548 -0.315,5.017 -0.889,7.385c2.311,-0.547 4.724,-0.718 7.206,-0.718c17.271,0 31.269,13.162 31.269,31.394l-162.265,0c0,-18.232 13.998,-31.394 31.272,-31.394Z" style="fill:#f1f2f2;fill-rule:nonzero;stroke:#000;stroke-width:4px;"/><path d="M698.914,282.573c0,0 -0.055,0.045 -0.16,0.128c-0.366,0.291 -1.31,1.037 -2.284,1.769c-0.486,0.366 -0.979,0.729 -1.404,1.024c-0.211,0.148 -0.405,0.279 -0.566,0.382c-0.16,0.103 -0.291,0.179 -0.346,0.207l1.773,3.404c0.25,-0.131 0.483,-0.275 0.739,-0.441c0.444,-0.289 0.941,-0.643 1.454,-1.019c1.53,-1.125 3.184,-2.45 3.195,-2.459l-2.401,-2.995Z" style="fill-rule:nonzero;"/><path d="M623.68,289.72c0.025,0.042 0.423,0.739 0.803,1.637c0.19,0.448 0.375,0.946 0.509,1.421c0.136,0.475 0.215,0.93 0.224,1.258l3.837,-0.122c-0.028,-0.796 -0.185,-1.544 -0.386,-2.245c-0.303,-1.049 -0.714,-1.993 -1.051,-2.695c-0.338,-0.702 -0.604,-1.158 -0.623,-1.191l-3.313,1.937Z" style="fill-rule:nonzero;"/></g><path d="M700.114,284.07c0,0 -3.821,3.063 -5.073,3.715" style="fill:#d1d3d4;fill-rule:nonzero;"/><path d="M625.336,288.751c0,0 1.726,2.953 1.798,5.224" style="fill:#d1d3d4;fill-rule:nonzero;"/></g></g><rect id="hr" x="56.06" y="334.281" width="787.881" height="0.786" style="fill:#444;"/><path id="slogan-auth" d="M217.775,356.265c1.36,0 2.177,0.642 2.453,1.925l0.052,0l0.519,-1.775l0.703,0l-2.013,9.554l-0.72,0l0.395,-2.409l-0.053,0c-0.492,0.832 -1.04,1.471 -1.643,1.916c-0.604,0.446 -1.298,0.668 -2.083,0.668c-1.647,0 -2.47,-1.095 -2.47,-3.287c0,-1.154 0.22,-2.256 0.659,-3.304c0.44,-1.049 1.027,-1.859 1.762,-2.431c0.736,-0.571 1.549,-0.857 2.439,-0.857Zm-2.188,9.088c0.521,0 1.041,-0.181 1.56,-0.545c0.519,-0.363 0.984,-0.849 1.397,-1.459c0.414,-0.609 0.728,-1.283 0.945,-2.021c0.217,-0.738 0.325,-1.362 0.325,-1.872c0,-0.463 -0.076,-0.878 -0.228,-1.244c-0.152,-0.366 -0.378,-0.656 -0.677,-0.87c-0.299,-0.214 -0.671,-0.321 -1.116,-0.321c-0.727,0 -1.383,0.241 -1.969,0.721c-0.586,0.481 -1.066,1.2 -1.441,2.158c-0.375,0.958 -0.563,1.911 -0.563,2.861c0,0.89 0.147,1.545 0.44,1.964c0.293,0.419 0.735,0.628 1.327,0.628Z" style="fill:#444;fill-rule:nonzero;"/><path d="M227.733,356.265c1.348,0 2.165,0.642 2.453,1.925l0.035,0c0.07,-0.386 0.489,-2.352 1.257,-5.897l0.87,0l-2.901,13.676l-0.72,0l0.395,-2.409l-0.053,0c-1.013,1.723 -2.256,2.584 -3.726,2.584c-1.647,0 -2.47,-1.095 -2.47,-3.287c0,-1.131 0.21,-2.215 0.628,-3.252c0.419,-1.037 0.998,-1.853 1.736,-2.447c0.739,-0.595 1.571,-0.893 2.496,-0.893Zm-2.188,9.088c0.521,0 1.044,-0.183 1.569,-0.549c0.524,-0.366 0.993,-0.858 1.406,-1.477c0.413,-0.618 0.725,-1.294 0.936,-2.03c0.211,-0.735 0.316,-1.349 0.316,-1.841c0,-0.738 -0.18,-1.329 -0.54,-1.771c-0.36,-0.442 -0.854,-0.664 -1.481,-0.664c-0.727,0 -1.383,0.244 -1.969,0.73c-0.586,0.486 -1.066,1.197 -1.441,2.131c-0.375,0.935 -0.563,1.894 -0.563,2.879c0,1.728 0.589,2.592 1.767,2.592Z" style="fill:#444;fill-rule:nonzero;"/><path d="M237.691,356.265c1.348,0 2.165,0.642 2.453,1.925l0.035,0c0.07,-0.386 0.489,-2.352 1.257,-5.897l0.87,0l-2.901,13.676l-0.72,0l0.395,-2.409l-0.053,0c-1.013,1.723 -2.256,2.584 -3.726,2.584c-1.647,0 -2.47,-1.095 -2.47,-3.287c0,-1.131 0.21,-2.215 0.628,-3.252c0.419,-1.037 0.998,-1.853 1.736,-2.447c0.739,-0.595 1.571,-0.893 2.496,-0.893Zm-2.188,9.088c0.521,0 1.044,-0.183 1.569,-0.549c0.524,-0.366 0.993,-0.858 1.406,-1.477c0.413,-0.618 0.725,-1.294 0.936,-2.03c0.211,-0.735 0.316,-1.349 0.316,-1.841c0,-0.738 -0.18,-1.329 -0.54,-1.771c-0.36,-0.442 -0.854,-0.664 -1.481,-0.664c-0.727,0 -1.383,0.244 -1.969,0.73c-0.586,0.486 -1.066,1.197 -1.441,2.131c-0.375,0.935 -0.563,1.894 -0.563,2.879c0,1.728 0.589,2.592 1.767,2.592Z" style="fill:#444;fill-rule:nonzero;"/><path d="M248.159,363.376c0,0.844 -0.302,1.516 -0.905,2.017c-0.604,0.501 -1.424,0.751 -2.461,0.751c-1.014,0 -1.907,-0.219 -2.681,-0.659l0,-0.94c0.434,0.269 0.882,0.477 1.345,0.624c0.463,0.146 0.897,0.22 1.301,0.22c0.808,0 1.427,-0.169 1.854,-0.506c0.428,-0.337 0.642,-0.816 0.642,-1.437c0,-0.246 -0.046,-0.463 -0.136,-0.65c-0.091,-0.188 -0.238,-0.368 -0.44,-0.541c-0.202,-0.173 -0.59,-0.423 -1.164,-0.751c-0.868,-0.469 -1.453,-0.895 -1.758,-1.279c-0.305,-0.384 -0.457,-0.851 -0.457,-1.402c0,-0.75 0.288,-1.364 0.866,-1.841c0.577,-0.478 1.337,-0.717 2.28,-0.717c0.44,0 0.904,0.052 1.393,0.154c0.49,0.103 0.901,0.239 1.235,0.409l-0.307,0.773c-0.797,-0.375 -1.571,-0.562 -2.321,-0.562c-0.679,0 -1.224,0.155 -1.634,0.466c-0.411,0.31 -0.616,0.715 -0.616,1.213c0,0.322 0.05,0.58 0.15,0.773c0.099,0.193 0.277,0.394 0.531,0.602c0.255,0.208 0.605,0.432 1.051,0.672c0.668,0.37 1.141,0.673 1.419,0.91c0.279,0.237 0.484,0.491 0.615,0.76c0.132,0.27 0.198,0.583 0.198,0.941Z" style="fill:#444;fill-rule:nonzero;"/><path d="M259.594,356.265c1.359,0 2.177,0.642 2.452,1.925l0.053,0l0.518,-1.775l0.703,0l-2.012,9.554l-0.721,0l0.395,-2.409l-0.052,0c-0.492,0.832 -1.04,1.471 -1.644,1.916c-0.603,0.446 -1.298,0.668 -2.083,0.668c-1.646,0 -2.47,-1.095 -2.47,-3.287c0,-1.154 0.22,-2.256 0.66,-3.304c0.439,-1.049 1.026,-1.859 1.762,-2.431c0.735,-0.571 1.548,-0.857 2.439,-0.857Zm-2.189,9.088c0.522,0 1.042,-0.181 1.56,-0.545c0.519,-0.363 0.985,-0.849 1.398,-1.459c0.413,-0.609 0.728,-1.283 0.945,-2.021c0.216,-0.738 0.325,-1.362 0.325,-1.872c0,-0.463 -0.076,-0.878 -0.229,-1.244c-0.152,-0.366 -0.378,-0.656 -0.676,-0.87c-0.299,-0.214 -0.671,-0.321 -1.117,-0.321c-0.726,0 -1.382,0.241 -1.968,0.721c-0.586,0.481 -1.067,1.2 -1.442,2.158c-0.375,0.958 -0.562,1.911 -0.562,2.861c0,0.89 0.146,1.545 0.439,1.964c0.293,0.419 0.735,0.628 1.327,0.628Z" style="fill:#444;fill-rule:nonzero;"/><path d="M274.737,363.376c0,0.844 -0.301,1.516 -0.905,2.017c-0.603,0.501 -1.424,0.751 -2.461,0.751c-1.014,0 -1.907,-0.219 -2.681,-0.659l0,-0.94c0.434,0.269 0.882,0.477 1.345,0.624c0.463,0.146 0.897,0.22 1.301,0.22c0.809,0 1.427,-0.169 1.854,-0.506c0.428,-0.337 0.642,-0.816 0.642,-1.437c0,-0.246 -0.045,-0.463 -0.136,-0.65c-0.091,-0.188 -0.238,-0.368 -0.44,-0.541c-0.202,-0.173 -0.59,-0.423 -1.164,-0.751c-0.867,-0.469 -1.453,-0.895 -1.758,-1.279c-0.305,-0.384 -0.457,-0.851 -0.457,-1.402c0,-0.75 0.289,-1.364 0.866,-1.841c0.577,-0.478 1.337,-0.717 2.28,-0.717c0.44,0 0.904,0.052 1.394,0.154c0.489,0.103 0.9,0.239 1.234,0.409l-0.307,0.773c-0.797,-0.375 -1.571,-0.562 -2.321,-0.562c-0.679,0 -1.224,0.155 -1.634,0.466c-0.41,0.31 -0.616,0.715 -0.616,1.213c0,0.322 0.05,0.58 0.15,0.773c0.099,0.193 0.277,0.394 0.532,0.602c0.254,0.208 0.605,0.432 1.05,0.672c0.668,0.37 1.141,0.673 1.419,0.91c0.279,0.237 0.484,0.491 0.616,0.76c0.131,0.27 0.197,0.583 0.197,0.941Z" style="fill:#444;fill-rule:nonzero;"/><path d="M277.269,365.969l-0.862,0l2.031,-9.554l0.843,0l-2.012,9.554Zm1.546,-12.006c0,-0.323 0.065,-0.58 0.194,-0.774c0.129,-0.193 0.304,-0.29 0.527,-0.29c0.334,0 0.501,0.211 0.501,0.633c0,0.334 -0.064,0.598 -0.193,0.791c-0.129,0.193 -0.296,0.29 -0.501,0.29c-0.17,0 -0.301,-0.057 -0.391,-0.171c-0.091,-0.115 -0.137,-0.274 -0.137,-0.479Z" style="fill:#444;fill-rule:nonzero;"/><path d="M286.163,365.969l1.292,-5.924c0.147,-0.733 0.22,-1.207 0.22,-1.424c0,-1.066 -0.451,-1.6 -1.354,-1.6c-0.621,0 -1.207,0.198 -1.758,0.594c-0.55,0.395 -1.016,0.947 -1.397,1.656c-0.381,0.709 -0.674,1.55 -0.879,2.523l-0.879,4.175l-0.861,0l2.03,-9.554l0.703,0l-0.29,1.846l0.053,0c0.469,-0.663 1,-1.161 1.595,-1.495c0.595,-0.334 1.217,-0.501 1.868,-0.501c0.621,0 1.098,0.197 1.432,0.589c0.334,0.393 0.51,0.964 0.528,1.714l0.053,0c0.451,-0.756 0.981,-1.328 1.59,-1.718c0.61,-0.39 1.26,-0.585 1.952,-0.585c0.685,0 1.22,0.181 1.604,0.541c0.383,0.36 0.575,0.877 0.575,1.551c0,0.17 -0.007,0.336 -0.022,0.497c-0.014,0.161 -0.072,0.511 -0.171,1.05l-1.336,6.065l-0.879,0l1.31,-5.977c0.146,-0.703 0.219,-1.219 0.219,-1.547c0,-0.451 -0.126,-0.801 -0.378,-1.05c-0.252,-0.249 -0.6,-0.374 -1.045,-0.374c-0.92,0 -1.733,0.403 -2.439,1.209c-0.707,0.805 -1.2,1.868 -1.481,3.186l-0.958,4.553l-0.897,0Z" style="fill:#444;fill-rule:nonzero;"/><path d="M299.681,366.109c-1.348,0 -2.165,-0.641 -2.452,-1.925l-0.036,0c-0.076,0.422 -0.512,2.458 -1.309,6.109l-0.87,0l2.953,-13.878l0.721,0l-0.396,2.408l0.053,0c0.533,-0.896 1.106,-1.553 1.718,-1.969c0.612,-0.416 1.282,-0.624 2.008,-0.624c0.791,0 1.401,0.271 1.828,0.813c0.428,0.542 0.642,1.37 0.642,2.483c0,1.143 -0.211,2.23 -0.633,3.261c-0.422,1.031 -1,1.843 -1.736,2.435c-0.735,0.591 -1.566,0.887 -2.491,0.887Zm2.197,-9.088c-0.51,0 -1.02,0.172 -1.529,0.514c-0.51,0.343 -0.983,0.834 -1.42,1.473c-0.436,0.638 -0.76,1.334 -0.971,2.087c-0.211,0.753 -0.316,1.364 -0.316,1.833c0,0.732 0.18,1.319 0.54,1.762c0.36,0.442 0.854,0.663 1.481,0.663c0.727,0 1.386,-0.246 1.978,-0.738c0.591,-0.492 1.072,-1.205 1.441,-2.14c0.369,-0.935 0.554,-1.888 0.554,-2.861c0,-1.728 -0.586,-2.593 -1.758,-2.593Z" style="fill:#444;fill-rule:nonzero;"/><path d="M306.896,365.969l-0.826,0l2.936,-13.676l0.826,0l-2.936,13.676Z" style="fill:#444;fill-rule:nonzero;"/><path d="M313.699,366.144c-1.013,0 -1.804,-0.32 -2.373,-0.962c-0.568,-0.642 -0.852,-1.537 -0.852,-2.685c0,-1.061 0.208,-2.077 0.624,-3.05c0.416,-0.973 0.988,-1.746 1.718,-2.32c0.729,-0.574 1.534,-0.862 2.413,-0.862c0.667,0 1.201,0.179 1.599,0.537c0.399,0.357 0.598,0.843 0.598,1.459c0,1.06 -0.479,1.869 -1.437,2.425c-0.958,0.557 -2.381,0.835 -4.267,0.835l-0.29,0c-0.036,0.258 -0.053,0.545 -0.053,0.862c0,0.966 0.217,1.703 0.65,2.21c0.434,0.507 1.058,0.76 1.872,0.76c0.774,0 1.582,-0.213 2.426,-0.641l0,0.826c-0.82,0.404 -1.696,0.606 -2.628,0.606Zm1.424,-9.123c-0.768,0 -1.481,0.339 -2.14,1.015c-0.659,0.677 -1.135,1.581 -1.428,2.712l0.43,0c3.03,0 4.544,-0.791 4.544,-2.373c0,-0.393 -0.127,-0.716 -0.382,-0.971c-0.255,-0.255 -0.596,-0.383 -1.024,-0.383Z" style="fill:#444;fill-rule:nonzero;"/><path d="M328.166,356.265c1.359,0 2.177,0.642 2.452,1.925l0.053,0l0.518,-1.775l0.704,0l-2.013,9.554l-0.721,0l0.396,-2.409l-0.053,0c-0.492,0.832 -1.04,1.471 -1.644,1.916c-0.603,0.446 -1.297,0.668 -2.083,0.668c-1.646,0 -2.469,-1.095 -2.469,-3.287c0,-1.154 0.219,-2.256 0.659,-3.304c0.439,-1.049 1.027,-1.859 1.762,-2.431c0.735,-0.571 1.548,-0.857 2.439,-0.857Zm-2.188,9.088c0.521,0 1.041,-0.181 1.56,-0.545c0.518,-0.363 0.984,-0.849 1.397,-1.459c0.413,-0.609 0.728,-1.283 0.945,-2.021c0.217,-0.738 0.325,-1.362 0.325,-1.872c0,-0.463 -0.076,-0.878 -0.228,-1.244c-0.153,-0.366 -0.378,-0.656 -0.677,-0.87c-0.299,-0.214 -0.671,-0.321 -1.116,-0.321c-0.727,0 -1.383,0.241 -1.969,0.721c-0.586,0.481 -1.067,1.2 -1.442,2.158c-0.375,0.958 -0.562,1.911 -0.562,2.861c0,0.89 0.146,1.545 0.439,1.964c0.293,0.419 0.736,0.628 1.328,0.628Z" style="fill:#444;fill-rule:nonzero;"/><path d="M338.634,363.376c0,0.844 -0.302,1.516 -0.905,2.017c-0.604,0.501 -1.424,0.751 -2.461,0.751c-1.014,0 -1.908,-0.219 -2.681,-0.659l0,-0.94c0.434,0.269 0.882,0.477 1.345,0.624c0.463,0.146 0.896,0.22 1.3,0.22c0.809,0 1.427,-0.169 1.855,-0.506c0.428,-0.337 0.642,-0.816 0.642,-1.437c0,-0.246 -0.046,-0.463 -0.137,-0.65c-0.091,-0.188 -0.237,-0.368 -0.439,-0.541c-0.202,-0.173 -0.591,-0.423 -1.165,-0.751c-0.867,-0.469 -1.453,-0.895 -1.758,-1.279c-0.304,-0.384 -0.457,-0.851 -0.457,-1.402c0,-0.75 0.289,-1.364 0.866,-1.841c0.577,-0.478 1.338,-0.717 2.281,-0.717c0.439,0 0.904,0.052 1.393,0.154c0.489,0.103 0.901,0.239 1.235,0.409l-0.308,0.773c-0.797,-0.375 -1.57,-0.562 -2.32,-0.562c-0.68,0 -1.225,0.155 -1.635,0.466c-0.41,0.31 -0.615,0.715 -0.615,1.213c0,0.322 0.05,0.58 0.149,0.773c0.1,0.193 0.277,0.394 0.532,0.602c0.255,0.208 0.605,0.432 1.05,0.672c0.668,0.37 1.141,0.673 1.42,0.91c0.278,0.237 0.483,0.491 0.615,0.76c0.132,0.27 0.198,0.583 0.198,0.941Z" style="fill:#444;fill-rule:nonzero;"/><path d="M345.902,363.376c0,0.844 -0.301,1.516 -0.905,2.017c-0.603,0.501 -1.424,0.751 -2.461,0.751c-1.014,0 -1.907,-0.219 -2.681,-0.659l0,-0.94c0.434,0.269 0.882,0.477 1.345,0.624c0.463,0.146 0.897,0.22 1.301,0.22c0.809,0 1.427,-0.169 1.854,-0.506c0.428,-0.337 0.642,-0.816 0.642,-1.437c0,-0.246 -0.045,-0.463 -0.136,-0.65c-0.091,-0.188 -0.237,-0.368 -0.44,-0.541c-0.202,-0.173 -0.59,-0.423 -1.164,-0.751c-0.867,-0.469 -1.453,-0.895 -1.758,-1.279c-0.305,-0.384 -0.457,-0.851 -0.457,-1.402c0,-0.75 0.289,-1.364 0.866,-1.841c0.577,-0.478 1.337,-0.717 2.28,-0.717c0.44,0 0.904,0.052 1.394,0.154c0.489,0.103 0.9,0.239 1.234,0.409l-0.307,0.773c-0.797,-0.375 -1.571,-0.562 -2.321,-0.562c-0.679,0 -1.224,0.155 -1.634,0.466c-0.41,0.31 -0.616,0.715 -0.616,1.213c0,0.322 0.05,0.58 0.15,0.773c0.1,0.193 0.277,0.394 0.532,0.602c0.255,0.208 0.605,0.432 1.05,0.672c0.668,0.37 1.141,0.673 1.419,0.91c0.279,0.237 0.484,0.491 0.616,0.76c0.131,0.27 0.197,0.583 0.197,0.941Z" style="fill:#444;fill-rule:nonzero;"/><path d="M351.026,366.144c-1.013,0 -1.804,-0.32 -2.373,-0.962c-0.568,-0.642 -0.852,-1.537 -0.852,-2.685c0,-1.061 0.208,-2.077 0.624,-3.05c0.416,-0.973 0.989,-1.746 1.718,-2.32c0.73,-0.574 1.534,-0.862 2.413,-0.862c0.668,0 1.201,0.179 1.599,0.537c0.399,0.357 0.598,0.843 0.598,1.459c0,1.06 -0.479,1.869 -1.437,2.425c-0.958,0.557 -2.38,0.835 -4.267,0.835l-0.29,0c-0.035,0.258 -0.053,0.545 -0.053,0.862c0,0.966 0.217,1.703 0.65,2.21c0.434,0.507 1.058,0.76 1.873,0.76c0.773,0 1.582,-0.213 2.425,-0.641l0,0.826c-0.82,0.404 -1.696,0.606 -2.628,0.606Zm1.424,-9.123c-0.767,0 -1.481,0.339 -2.14,1.015c-0.659,0.677 -1.135,1.581 -1.428,2.712l0.43,0c3.03,0 4.544,-0.791 4.544,-2.373c0,-0.393 -0.127,-0.716 -0.382,-0.971c-0.255,-0.255 -0.596,-0.383 -1.024,-0.383Z" style="fill:#444;fill-rule:nonzero;"/><path d="M361.16,356.415l-0.158,0.712l-2.487,0l-1.187,5.581c-0.129,0.58 -0.193,1.06 -0.193,1.441c0,0.815 0.369,1.222 1.107,1.222c0.399,0 0.844,-0.076 1.336,-0.229l0,0.756c-0.592,0.164 -1.09,0.246 -1.494,0.246c-0.58,0 -1.028,-0.159 -1.345,-0.479c-0.316,-0.319 -0.474,-0.783 -0.474,-1.393c0,-0.427 0.085,-1.031 0.255,-1.81l1.133,-5.335l-1.599,0l0.123,-0.589l1.617,-0.149l0.852,-2.224l0.484,0l-0.484,2.25l2.514,0Z" style="fill:#444;fill-rule:nonzero;"/><path d="M371.417,363.376c0,0.844 -0.302,1.516 -0.905,2.017c-0.604,0.501 -1.424,0.751 -2.461,0.751c-1.014,0 -1.907,-0.219 -2.681,-0.659l0,-0.94c0.434,0.269 0.882,0.477 1.345,0.624c0.463,0.146 0.896,0.22 1.301,0.22c0.808,0 1.426,-0.169 1.854,-0.506c0.428,-0.337 0.642,-0.816 0.642,-1.437c0,-0.246 -0.046,-0.463 -0.137,-0.65c-0.09,-0.188 -0.237,-0.368 -0.439,-0.541c-0.202,-0.173 -0.59,-0.423 -1.165,-0.751c-0.867,-0.469 -1.453,-0.895 -1.757,-1.279c-0.305,-0.384 -0.457,-0.851 -0.457,-1.402c0,-0.75 0.288,-1.364 0.865,-1.841c0.578,-0.478 1.338,-0.717 2.281,-0.717c0.44,0 0.904,0.052 1.393,0.154c0.489,0.103 0.901,0.239 1.235,0.409l-0.308,0.773c-0.796,-0.375 -1.57,-0.562 -2.32,-0.562c-0.68,0 -1.224,0.155 -1.635,0.466c-0.41,0.31 -0.615,0.715 -0.615,1.213c0,0.322 0.05,0.58 0.15,0.773c0.099,0.193 0.276,0.394 0.531,0.602c0.255,0.208 0.605,0.432 1.051,0.672c0.668,0.37 1.141,0.673 1.419,0.91c0.278,0.237 0.483,0.491 0.615,0.76c0.132,0.27 0.198,0.583 0.198,0.941Z" style="fill:#444;fill-rule:nonzero;"/><path d="M376.541,366.144c-1.014,0 -1.805,-0.32 -2.373,-0.962c-0.568,-0.642 -0.853,-1.537 -0.853,-2.685c0,-1.061 0.208,-2.077 0.624,-3.05c0.416,-0.973 0.989,-1.746 1.719,-2.32c0.729,-0.574 1.533,-0.862 2.412,-0.862c0.668,0 1.201,0.179 1.6,0.537c0.398,0.357 0.598,0.843 0.598,1.459c0,1.06 -0.479,1.869 -1.437,2.425c-0.958,0.557 -2.381,0.835 -4.268,0.835l-0.29,0c-0.035,0.258 -0.052,0.545 -0.052,0.862c0,0.966 0.216,1.703 0.65,2.21c0.434,0.507 1.058,0.76 1.872,0.76c0.774,0 1.582,-0.213 2.426,-0.641l0,0.826c-0.82,0.404 -1.696,0.606 -2.628,0.606Zm1.424,-9.123c-0.768,0 -1.481,0.339 -2.14,1.015c-0.659,0.677 -1.136,1.581 -1.429,2.712l0.431,0c3.029,0 4.544,-0.791 4.544,-2.373c0,-0.393 -0.127,-0.716 -0.382,-0.971c-0.255,-0.255 -0.596,-0.383 -1.024,-0.383Z" style="fill:#444;fill-rule:nonzero;"/><path d="M386.842,356.248c0.404,0 0.764,0.041 1.081,0.123l-0.185,0.817c-0.275,-0.088 -0.606,-0.132 -0.993,-0.132c-0.551,0 -1.075,0.188 -1.573,0.563c-0.498,0.375 -0.946,0.937 -1.345,1.687c-0.398,0.75 -0.691,1.562 -0.879,2.435l-0.879,4.228l-0.861,0l2.03,-9.554l0.703,0l-0.254,1.793l0.052,0c0.428,-0.551 0.788,-0.948 1.081,-1.191c0.293,-0.243 0.605,-0.432 0.936,-0.567c0.331,-0.135 0.693,-0.202 1.086,-0.202Z" style="fill:#444;fill-rule:nonzero;"/><path d="M389.61,365.969l-1.511,-9.554l0.887,0l0.95,6.46c0.152,0.967 0.249,1.711 0.29,2.232l0.052,0c0.299,-0.674 0.677,-1.424 1.134,-2.25l3.568,-6.442l0.897,0l-5.273,9.554l-0.994,0Z" style="fill:#444;fill-rule:nonzero;"/><path d="M396.58,365.969l-0.861,0l2.03,-9.554l0.844,0l-2.013,9.554Zm1.547,-12.006c0,-0.323 0.064,-0.58 0.193,-0.774c0.129,-0.193 0.305,-0.29 0.528,-0.29c0.334,0 0.501,0.211 0.501,0.633c0,0.334 -0.065,0.598 -0.194,0.791c-0.129,0.193 -0.296,0.29 -0.501,0.29c-0.17,0 -0.3,-0.057 -0.391,-0.171c-0.091,-0.115 -0.136,-0.274 -0.136,-0.479Z" style="fill:#444;fill-rule:nonzero;"/><path d="M403.418,366.144c-1.02,0 -1.824,-0.323 -2.413,-0.971c-0.588,-0.647 -0.883,-1.545 -0.883,-2.694c0,-1.131 0.215,-2.19 0.646,-3.177c0.431,-0.987 1.012,-1.74 1.745,-2.259c0.732,-0.518 1.582,-0.778 2.549,-0.778c0.785,0 1.491,0.126 2.118,0.378l-0.246,0.791c-0.627,-0.275 -1.266,-0.413 -1.916,-0.413c-0.756,0 -1.437,0.226 -2.044,0.677c-0.606,0.451 -1.082,1.102 -1.428,1.951c-0.346,0.85 -0.519,1.787 -0.519,2.813c0,0.926 0.216,1.639 0.646,2.14c0.431,0.501 1.042,0.751 1.833,0.751c0.416,0 0.801,-0.038 1.156,-0.114c0.354,-0.076 0.739,-0.211 1.155,-0.404l0,0.808c-0.679,0.334 -1.479,0.501 -2.399,0.501Z" style="fill:#444;fill-rule:nonzero;"/><path d="M411.144,366.144c-1.014,0 -1.805,-0.32 -2.373,-0.962c-0.569,-0.642 -0.853,-1.537 -0.853,-2.685c0,-1.061 0.208,-2.077 0.624,-3.05c0.416,-0.973 0.989,-1.746 1.718,-2.32c0.73,-0.574 1.534,-0.862 2.413,-0.862c0.668,0 1.201,0.179 1.599,0.537c0.399,0.357 0.598,0.843 0.598,1.459c0,1.06 -0.479,1.869 -1.437,2.425c-0.958,0.557 -2.38,0.835 -4.267,0.835l-0.29,0c-0.035,0.258 -0.053,0.545 -0.053,0.862c0,0.966 0.217,1.703 0.651,2.21c0.433,0.507 1.057,0.76 1.872,0.76c0.773,0 1.582,-0.213 2.425,-0.641l0,0.826c-0.82,0.404 -1.696,0.606 -2.627,0.606Zm1.423,-9.123c-0.767,0 -1.481,0.339 -2.14,1.015c-0.659,0.677 -1.135,1.581 -1.428,2.712l0.431,0c3.029,0 4.544,-0.791 4.544,-2.373c0,-0.393 -0.128,-0.716 -0.383,-0.971c-0.255,-0.255 -0.596,-0.383 -1.024,-0.383Z" style="fill:#444;fill-rule:nonzero;"/><path d="M427.219,365.969l-0.528,-6.03c-0.082,-1.312 -0.123,-2.091 -0.123,-2.338l-0.052,0c-0.2,0.539 -0.621,1.389 -1.266,2.549l-3.129,5.819l-1.028,0l-0.176,-9.554l0.809,0l0.114,7.216l-0.027,1.38l0.053,0c0.358,-0.786 0.797,-1.656 1.319,-2.611l3.278,-5.985l0.677,0l0.562,5.985c0.082,0.862 0.123,1.732 0.123,2.611l0.053,0l0.211,-0.537l0.888,-2.074l2.812,-5.985l0.844,0l-4.465,9.554l-0.949,0Z" style="fill:#444;fill-rule:nonzero;"/><path d="M433.626,365.969l-0.861,0l2.03,-9.554l0.844,0l-2.013,9.554Zm1.547,-12.006c0,-0.323 0.064,-0.58 0.193,-0.774c0.129,-0.193 0.305,-0.29 0.528,-0.29c0.334,0 0.501,0.211 0.501,0.633c0,0.334 -0.065,0.598 -0.194,0.791c-0.129,0.193 -0.296,0.29 -0.501,0.29c-0.17,0 -0.3,-0.057 -0.391,-0.171c-0.091,-0.115 -0.136,-0.274 -0.136,-0.479Z" style="fill:#444;fill-rule:nonzero;"/><path d="M442.371,356.415l-0.158,0.712l-2.487,0l-1.187,5.581c-0.129,0.58 -0.193,1.06 -0.193,1.441c0,0.815 0.369,1.222 1.107,1.222c0.399,0 0.844,-0.076 1.336,-0.229l0,0.756c-0.592,0.164 -1.09,0.246 -1.494,0.246c-0.58,0 -1.028,-0.159 -1.345,-0.479c-0.316,-0.319 -0.474,-0.783 -0.474,-1.393c0,-0.427 0.085,-1.031 0.254,-1.81l1.134,-5.335l-1.599,0l0.123,-0.589l1.617,-0.149l0.852,-2.224l0.484,0l-0.484,2.25l2.514,0Z" style="fill:#444;fill-rule:nonzero;"/><path d="M448.4,365.969l1.31,-6.082c0.123,-0.539 0.185,-0.997 0.185,-1.372c0,-0.468 -0.128,-0.834 -0.383,-1.098c-0.255,-0.264 -0.649,-0.396 -1.182,-0.396c-0.656,0 -1.273,0.197 -1.85,0.589c-0.577,0.393 -1.063,0.944 -1.459,1.653c-0.396,0.709 -0.699,1.546 -0.91,2.513l-0.896,4.193l-0.861,0l2.917,-13.676l0.844,0l-0.756,3.612c-0.257,1.172 -0.451,1.989 -0.58,2.452l0.053,0c0.457,-0.662 1.003,-1.176 1.639,-1.542c0.636,-0.366 1.308,-0.55 2.017,-0.55c0.727,0 1.289,0.191 1.688,0.572c0.398,0.381 0.597,0.917 0.597,1.608c0,0.41 -0.07,0.944 -0.21,1.6l-1.301,5.924l-0.862,0Z" style="fill:#444;fill-rule:nonzero;"/><path d="M460.802,366.109c-0.662,0 -1.207,-0.173 -1.635,-0.518c-0.428,-0.346 -0.712,-0.832 -0.853,-1.459l-0.052,0l-0.484,1.837l-0.703,0l2.874,-13.676l0.835,0c-0.767,3.68 -1.242,5.88 -1.424,6.6l0.053,0c0.545,-0.914 1.128,-1.586 1.749,-2.017c0.621,-0.43 1.298,-0.646 2.03,-0.646c1.647,0 2.47,1.099 2.47,3.296c0,1.19 -0.223,2.303 -0.668,3.34c-0.445,1.037 -1.034,1.837 -1.766,2.399c-0.733,0.563 -1.541,0.844 -2.426,0.844Zm2.197,-9.088c-0.533,0 -1.061,0.181 -1.582,0.541c-0.521,0.36 -0.992,0.857 -1.411,1.49c-0.419,0.632 -0.731,1.321 -0.936,2.065c-0.205,0.744 -0.307,1.348 -0.307,1.811c0,0.755 0.187,1.349 0.562,1.779c0.375,0.431 0.862,0.646 1.459,0.646c0.727,0 1.383,-0.243 1.969,-0.729c0.586,-0.486 1.066,-1.204 1.441,-2.153c0.375,-0.95 0.563,-1.902 0.563,-2.857c0,-0.891 -0.144,-1.545 -0.431,-1.964c-0.287,-0.419 -0.729,-0.629 -1.327,-0.629Z" style="fill:#444;fill-rule:nonzero;"/><path d="M472.28,356.265c1.36,0 2.177,0.642 2.452,1.925l0.053,0l0.519,-1.775l0.703,0l-2.013,9.554l-0.721,0l0.396,-2.409l-0.053,0c-0.492,0.832 -1.04,1.471 -1.643,1.916c-0.604,0.446 -1.298,0.668 -2.083,0.668c-1.647,0 -2.47,-1.095 -2.47,-3.287c0,-1.154 0.22,-2.256 0.659,-3.304c0.44,-1.049 1.027,-1.859 1.762,-2.431c0.736,-0.571 1.549,-0.857 2.439,-0.857Zm-2.188,9.088c0.521,0 1.041,-0.181 1.56,-0.545c0.518,-0.363 0.984,-0.849 1.397,-1.459c0.413,-0.609 0.728,-1.283 0.945,-2.021c0.217,-0.738 0.325,-1.362 0.325,-1.872c0,-0.463 -0.076,-0.878 -0.228,-1.244c-0.153,-0.366 -0.378,-0.656 -0.677,-0.87c-0.299,-0.214 -0.671,-0.321 -1.116,-0.321c-0.727,0 -1.383,0.241 -1.969,0.721c-0.586,0.481 -1.066,1.2 -1.441,2.158c-0.375,0.958 -0.563,1.911 -0.563,2.861c0,0.89 0.147,1.545 0.44,1.964c0.293,0.419 0.735,0.628 1.327,0.628Z" style="fill:#444;fill-rule:nonzero;"/><path d="M482.748,363.376c0,0.844 -0.302,1.516 -0.905,2.017c-0.604,0.501 -1.424,0.751 -2.461,0.751c-1.014,0 -1.907,-0.219 -2.681,-0.659l0,-0.94c0.434,0.269 0.882,0.477 1.345,0.624c0.463,0.146 0.896,0.22 1.301,0.22c0.808,0 1.426,-0.169 1.854,-0.506c0.428,-0.337 0.642,-0.816 0.642,-1.437c0,-0.246 -0.046,-0.463 -0.136,-0.65c-0.091,-0.188 -0.238,-0.368 -0.44,-0.541c-0.202,-0.173 -0.59,-0.423 -1.164,-0.751c-0.868,-0.469 -1.454,-0.895 -1.758,-1.279c-0.305,-0.384 -0.457,-0.851 -0.457,-1.402c0,-0.75 0.288,-1.364 0.865,-1.841c0.578,-0.478 1.338,-0.717 2.281,-0.717c0.44,0 0.904,0.052 1.393,0.154c0.49,0.103 0.901,0.239 1.235,0.409l-0.308,0.773c-0.796,-0.375 -1.57,-0.562 -2.32,-0.562c-0.68,0 -1.224,0.155 -1.635,0.466c-0.41,0.31 -0.615,0.715 -0.615,1.213c0,0.322 0.05,0.58 0.15,0.773c0.099,0.193 0.276,0.394 0.531,0.602c0.255,0.208 0.605,0.432 1.051,0.672c0.668,0.37 1.141,0.673 1.419,0.91c0.278,0.237 0.483,0.491 0.615,0.76c0.132,0.27 0.198,0.583 0.198,0.941Z" style="fill:#444;fill-rule:nonzero;"/><path d="M485.279,365.969l-0.861,0l2.03,-9.554l0.844,0l-2.013,9.554Zm1.547,-12.006c0,-0.323 0.065,-0.58 0.194,-0.774c0.128,-0.193 0.304,-0.29 0.527,-0.29c0.334,0 0.501,0.211 0.501,0.633c0,0.334 -0.065,0.598 -0.194,0.791c-0.128,0.193 -0.295,0.29 -0.5,0.29c-0.17,0 -0.301,-0.057 -0.392,-0.171c-0.09,-0.115 -0.136,-0.274 -0.136,-0.479Z" style="fill:#444;fill-rule:nonzero;"/><path d="M492.117,366.144c-1.019,0 -1.824,-0.323 -2.412,-0.971c-0.589,-0.647 -0.884,-1.545 -0.884,-2.694c0,-1.131 0.216,-2.19 0.646,-3.177c0.431,-0.987 1.012,-1.74 1.745,-2.259c0.732,-0.518 1.582,-0.778 2.549,-0.778c0.785,0 1.491,0.126 2.118,0.378l-0.246,0.791c-0.627,-0.275 -1.266,-0.413 -1.916,-0.413c-0.756,0 -1.437,0.226 -2.044,0.677c-0.606,0.451 -1.082,1.102 -1.428,1.951c-0.346,0.85 -0.518,1.787 -0.518,2.813c0,0.926 0.215,1.639 0.646,2.14c0.43,0.501 1.041,0.751 1.832,0.751c0.416,0 0.801,-0.038 1.156,-0.114c0.354,-0.076 0.74,-0.211 1.156,-0.404l0,0.808c-0.68,0.334 -1.48,0.501 -2.4,0.501Z" style="fill:#444;fill-rule:nonzero;"/><path d="M499.245,370.293c-0.281,0 -0.58,-0.056 -0.896,-0.167l0,-0.791c0.31,0.094 0.603,0.14 0.879,0.14c0.515,0 0.908,-0.155 1.177,-0.465c0.27,-0.311 0.49,-0.856 0.659,-1.635l2.163,-10.248l-1.802,0l0.123,-0.589l1.802,-0.123l0.307,-1.406c0.205,-0.985 0.547,-1.7 1.024,-2.145c0.478,-0.445 1.144,-0.668 2,-0.668c0.427,0 0.914,0.091 1.459,0.273l-0.22,0.703c-0.51,-0.158 -0.941,-0.238 -1.292,-0.238c-0.563,0 -1.012,0.157 -1.349,0.471c-0.337,0.313 -0.585,0.836 -0.743,1.568l-0.307,1.442l2.179,0l-0.14,0.712l-2.18,0l-2.215,10.459c-0.193,0.943 -0.498,1.63 -0.914,2.061c-0.416,0.43 -0.987,0.646 -1.714,0.646Z" style="fill:#444;fill-rule:nonzero;"/><path d="M509.599,366.144c-1.014,0 -1.805,-0.32 -2.373,-0.962c-0.569,-0.642 -0.853,-1.537 -0.853,-2.685c0,-1.061 0.208,-2.077 0.624,-3.05c0.416,-0.973 0.989,-1.746 1.718,-2.32c0.73,-0.574 1.534,-0.862 2.413,-0.862c0.668,0 1.201,0.179 1.6,0.537c0.398,0.357 0.597,0.843 0.597,1.459c0,1.06 -0.479,1.869 -1.437,2.425c-0.958,0.557 -2.38,0.835 -4.267,0.835l-0.29,0c-0.035,0.258 -0.053,0.545 -0.053,0.862c0,0.966 0.217,1.703 0.651,2.21c0.433,0.507 1.057,0.76 1.872,0.76c0.773,0 1.582,-0.213 2.426,-0.641l0,0.826c-0.821,0.404 -1.697,0.606 -2.628,0.606Zm1.423,-9.123c-0.767,0 -1.48,0.339 -2.14,1.015c-0.659,0.677 -1.135,1.581 -1.428,2.712l0.431,0c3.029,0 4.544,-0.791 4.544,-2.373c0,-0.393 -0.128,-0.716 -0.383,-0.971c-0.254,-0.255 -0.596,-0.383 -1.024,-0.383Z" style="fill:#444;fill-rule:nonzero;"/><path d="M519.39,356.265c1.359,0 2.176,0.642 2.452,1.925l0.053,0l0.518,-1.775l0.703,0l-2.012,9.554l-0.721,0l0.395,-2.409l-0.052,0c-0.493,0.832 -1.04,1.471 -1.644,1.916c-0.603,0.446 -1.298,0.668 -2.083,0.668c-1.646,0 -2.47,-1.095 -2.47,-3.287c0,-1.154 0.22,-2.256 0.659,-3.304c0.44,-1.049 1.027,-1.859 1.763,-2.431c0.735,-0.571 1.548,-0.857 2.439,-0.857Zm-2.189,9.088c0.522,0 1.042,-0.181 1.56,-0.545c0.519,-0.363 0.985,-0.849 1.398,-1.459c0.413,-0.609 0.728,-1.283 0.945,-2.021c0.216,-0.738 0.325,-1.362 0.325,-1.872c0,-0.463 -0.076,-0.878 -0.229,-1.244c-0.152,-0.366 -0.378,-0.656 -0.677,-0.87c-0.298,-0.214 -0.67,-0.321 -1.116,-0.321c-0.726,0 -1.383,0.241 -1.969,0.721c-0.585,0.481 -1.066,1.2 -1.441,2.158c-0.375,0.958 -0.562,1.911 -0.562,2.861c0,0.89 0.146,1.545 0.439,1.964c0.293,0.419 0.735,0.628 1.327,0.628Z" style="fill:#444;fill-rule:nonzero;"/><path d="M529.69,356.415l-0.158,0.712l-2.487,0l-1.187,5.581c-0.129,0.58 -0.193,1.06 -0.193,1.441c0,0.815 0.369,1.222 1.107,1.222c0.399,0 0.844,-0.076 1.336,-0.229l0,0.756c-0.591,0.164 -1.089,0.246 -1.494,0.246c-0.58,0 -1.028,-0.159 -1.344,-0.479c-0.317,-0.319 -0.475,-0.783 -0.475,-1.393c0,-0.427 0.085,-1.031 0.255,-1.81l1.134,-5.335l-1.6,0l0.123,-0.589l1.617,-0.149l0.853,-2.224l0.483,0l-0.483,2.25l2.513,0Z" style="fill:#444;fill-rule:nonzero;"/><path d="M532.354,356.415l-1.336,6.135c-0.129,0.621 -0.194,1.084 -0.194,1.388c0,0.434 0.139,0.778 0.418,1.033c0.278,0.255 0.684,0.382 1.217,0.382c0.645,0 1.252,-0.192 1.824,-0.575c0.571,-0.384 1.051,-0.932 1.441,-1.644c0.39,-0.712 0.681,-1.531 0.875,-2.456l0.922,-4.263l0.862,0l-2.03,9.554l-0.704,0l0.247,-1.802l-0.053,0c-0.979,1.295 -2.159,1.942 -3.542,1.942c-0.768,0 -1.349,-0.181 -1.745,-0.545c-0.395,-0.363 -0.593,-0.893 -0.593,-1.591c0,-0.351 0.064,-0.849 0.193,-1.494l1.319,-6.064l0.879,0Z" style="fill:#444;fill-rule:nonzero;"/><path d="M545.317,356.248c0.405,0 0.765,0.041 1.081,0.123l-0.184,0.817c-0.276,-0.088 -0.607,-0.132 -0.993,-0.132c-0.551,0 -1.075,0.188 -1.574,0.563c-0.498,0.375 -0.946,0.937 -1.344,1.687c-0.399,0.75 -0.692,1.562 -0.879,2.435l-0.879,4.228l-0.861,0l2.03,-9.554l0.703,0l-0.255,1.793l0.053,0c0.428,-0.551 0.788,-0.948 1.081,-1.191c0.293,-0.243 0.605,-0.432 0.936,-0.567c0.331,-0.135 0.693,-0.202 1.085,-0.202Z" style="fill:#444;fill-rule:nonzero;"/><path d="M549.422,366.144c-1.014,0 -1.805,-0.32 -2.373,-0.962c-0.569,-0.642 -0.853,-1.537 -0.853,-2.685c0,-1.061 0.208,-2.077 0.624,-3.05c0.416,-0.973 0.989,-1.746 1.719,-2.32c0.729,-0.574 1.533,-0.862 2.412,-0.862c0.668,0 1.201,0.179 1.6,0.537c0.398,0.357 0.597,0.843 0.597,1.459c0,1.06 -0.479,1.869 -1.437,2.425c-0.958,0.557 -2.38,0.835 -4.267,0.835l-0.29,0c-0.035,0.258 -0.052,0.545 -0.052,0.862c0,0.966 0.216,1.703 0.65,2.21c0.434,0.507 1.058,0.76 1.872,0.76c0.773,0 1.582,-0.213 2.426,-0.641l0,0.826c-0.821,0.404 -1.696,0.606 -2.628,0.606Zm1.424,-9.123c-0.768,0 -1.481,0.339 -2.14,1.015c-0.66,0.677 -1.136,1.581 -1.429,2.712l0.431,0c3.029,0 4.544,-0.791 4.544,-2.373c0,-0.393 -0.127,-0.716 -0.382,-0.971c-0.255,-0.255 -0.597,-0.383 -1.024,-0.383Z" style="fill:#444;fill-rule:nonzero;"/><path d="M559.723,363.376c0,0.844 -0.302,1.516 -0.906,2.017c-0.603,0.501 -1.423,0.751 -2.461,0.751c-1.013,0 -1.907,-0.219 -2.68,-0.659l0,-0.94c0.433,0.269 0.882,0.477 1.345,0.624c0.462,0.146 0.896,0.22 1.3,0.22c0.809,0 1.427,-0.169 1.855,-0.506c0.428,-0.337 0.641,-0.816 0.641,-1.437c0,-0.246 -0.045,-0.463 -0.136,-0.65c-0.091,-0.188 -0.237,-0.368 -0.439,-0.541c-0.202,-0.173 -0.591,-0.423 -1.165,-0.751c-0.867,-0.469 -1.453,-0.895 -1.758,-1.279c-0.304,-0.384 -0.457,-0.851 -0.457,-1.402c0,-0.75 0.289,-1.364 0.866,-1.841c0.577,-0.478 1.337,-0.717 2.281,-0.717c0.439,0 0.904,0.052 1.393,0.154c0.489,0.103 0.901,0.239 1.235,0.409l-0.308,0.773c-0.797,-0.375 -1.57,-0.562 -2.32,-0.562c-0.68,0 -1.225,0.155 -1.635,0.466c-0.41,0.31 -0.615,0.715 -0.615,1.213c0,0.322 0.05,0.58 0.149,0.773c0.1,0.193 0.277,0.394 0.532,0.602c0.255,0.208 0.605,0.432 1.05,0.672c0.668,0.37 1.141,0.673 1.42,0.91c0.278,0.237 0.483,0.491 0.615,0.76c0.132,0.27 0.198,0.583 0.198,0.941Z" style="fill:#444;fill-rule:nonzero;"/><path d="M571.5,356.415l-0.158,0.712l-2.488,0l-1.186,5.581c-0.129,0.58 -0.193,1.06 -0.193,1.441c0,0.815 0.369,1.222 1.107,1.222c0.398,0 0.844,-0.076 1.336,-0.229l0,0.756c-0.592,0.164 -1.09,0.246 -1.494,0.246c-0.58,0 -1.028,-0.159 -1.345,-0.479c-0.316,-0.319 -0.475,-0.783 -0.475,-1.393c0,-0.427 0.085,-1.031 0.255,-1.81l1.134,-5.335l-1.599,0l0.123,-0.589l1.617,-0.149l0.852,-2.224l0.484,0l-0.484,2.25l2.514,0Z" style="fill:#444;fill-rule:nonzero;"/><path d="M576.519,356.23c1.054,0 1.87,0.318 2.447,0.954c0.577,0.636 0.866,1.513 0.866,2.632c0,1.155 -0.209,2.234 -0.628,3.239c-0.419,1.005 -0.992,1.771 -1.719,2.298c-0.726,0.528 -1.564,0.791 -2.513,0.791c-1.078,0 -1.897,-0.32 -2.457,-0.962c-0.559,-0.642 -0.839,-1.56 -0.839,-2.755c0,-1.12 0.214,-2.168 0.641,-3.147c0.428,-0.978 1.005,-1.731 1.732,-2.259c0.726,-0.527 1.55,-0.791 2.47,-0.791Zm-0.071,0.756c-0.726,0 -1.38,0.23 -1.96,0.69c-0.58,0.46 -1.043,1.119 -1.388,1.978c-0.346,0.858 -0.519,1.768 -0.519,2.729c0,2.004 0.826,3.006 2.479,3.006c0.744,0 1.404,-0.228 1.982,-0.682c0.577,-0.454 1.037,-1.122 1.379,-2.004c0.343,-0.881 0.515,-1.85 0.515,-2.904c0,-0.903 -0.214,-1.597 -0.642,-2.083c-0.428,-0.487 -1.043,-0.73 -1.846,-0.73Z" style="fill:#444;fill-rule:nonzero;"/><path d="M586.45,356.415l0.879,0l0.721,4.816c0.299,2.057 0.46,3.372 0.483,3.947l0.097,0c0.252,-0.616 0.797,-1.691 1.635,-3.226l3.058,-5.537l0.906,0l-6.267,11.338c-0.422,0.744 -0.781,1.265 -1.077,1.564c-0.296,0.299 -0.63,0.536 -1.002,0.712c-0.372,0.176 -0.801,0.264 -1.287,0.264c-0.399,0 -0.777,-0.062 -1.134,-0.185l0,-0.808c0.416,0.158 0.817,0.237 1.204,0.237c0.469,0 0.899,-0.145 1.292,-0.435c0.393,-0.29 0.773,-0.772 1.143,-1.446c0.369,-0.674 0.662,-1.213 0.878,-1.617l-1.529,-9.624Z" style="fill:#444;fill-rule:nonzero;"/><path d="M599.159,356.23c1.055,0 1.871,0.318 2.448,0.954c0.577,0.636 0.866,1.513 0.866,2.632c0,1.155 -0.21,2.234 -0.629,3.239c-0.419,1.005 -0.991,1.771 -1.718,2.298c-0.727,0.528 -1.564,0.791 -2.514,0.791c-1.078,0 -1.897,-0.32 -2.456,-0.962c-0.56,-0.642 -0.84,-1.56 -0.84,-2.755c0,-1.12 0.214,-2.168 0.642,-3.147c0.428,-0.978 1.005,-1.731 1.731,-2.259c0.727,-0.527 1.55,-0.791 2.47,-0.791Zm-0.07,0.756c-0.727,0 -1.38,0.23 -1.96,0.69c-0.58,0.46 -1.043,1.119 -1.389,1.978c-0.345,0.858 -0.518,1.768 -0.518,2.729c0,2.004 0.826,3.006 2.478,3.006c0.744,0 1.405,-0.228 1.982,-0.682c0.577,-0.454 1.037,-1.122 1.38,-2.004c0.343,-0.881 0.514,-1.85 0.514,-2.904c0,-0.903 -0.214,-1.597 -0.641,-2.083c-0.428,-0.487 -1.043,-0.73 -1.846,-0.73Z" style="fill:#444;fill-rule:nonzero;"/><path d="M606.683,356.415l-1.336,6.135c-0.129,0.621 -0.194,1.084 -0.194,1.388c0,0.434 0.139,0.778 0.418,1.033c0.278,0.255 0.684,0.382 1.217,0.382c0.645,0 1.253,-0.192 1.824,-0.575c0.571,-0.384 1.052,-0.932 1.441,-1.644c0.39,-0.712 0.681,-1.531 0.875,-2.456l0.923,-4.263l0.861,0l-2.03,9.554l-0.703,0l0.246,-1.802l-0.053,0c-0.979,1.295 -2.159,1.942 -3.542,1.942c-0.768,0 -1.349,-0.181 -1.745,-0.545c-0.395,-0.363 -0.593,-0.893 -0.593,-1.591c0,-0.351 0.064,-0.849 0.193,-1.494l1.319,-6.064l0.879,0Z" style="fill:#444;fill-rule:nonzero;"/><path d="M619.646,356.248c0.405,0 0.765,0.041 1.082,0.123l-0.185,0.817c-0.275,-0.088 -0.606,-0.132 -0.993,-0.132c-0.551,0 -1.075,0.188 -1.573,0.563c-0.498,0.375 -0.947,0.937 -1.345,1.687c-0.399,0.75 -0.692,1.562 -0.879,2.435l-0.879,4.228l-0.861,0l2.03,-9.554l0.703,0l-0.255,1.793l0.053,0c0.428,-0.551 0.788,-0.948 1.081,-1.191c0.293,-0.243 0.605,-0.432 0.936,-0.567c0.331,-0.135 0.693,-0.202 1.085,-0.202Z" style="fill:#444;fill-rule:nonzero;"/><path d="M629.042,366.109c-1.348,0 -2.165,-0.641 -2.452,-1.925l-0.035,0c-0.076,0.422 -0.513,2.458 -1.31,6.109l-0.87,0l2.953,-13.878l0.721,0l-0.396,2.408l0.053,0c0.533,-0.896 1.106,-1.553 1.718,-1.969c0.613,-0.416 1.282,-0.624 2.009,-0.624c0.791,0 1.4,0.271 1.828,0.813c0.427,0.542 0.641,1.37 0.641,2.483c0,1.143 -0.211,2.23 -0.632,3.261c-0.422,1.031 -1.001,1.843 -1.736,2.435c-0.736,0.591 -1.566,0.887 -2.492,0.887Zm2.197,-9.088c-0.51,0 -1.019,0.172 -1.529,0.514c-0.51,0.343 -0.983,0.834 -1.419,1.473c-0.437,0.638 -0.761,1.334 -0.972,2.087c-0.211,0.753 -0.316,1.364 -0.316,1.833c0,0.732 0.18,1.319 0.54,1.762c0.361,0.442 0.854,0.663 1.481,0.663c0.727,0 1.386,-0.246 1.978,-0.738c0.592,-0.492 1.072,-1.205 1.441,-2.14c0.369,-0.935 0.554,-1.888 0.554,-2.861c0,-1.728 -0.586,-2.593 -1.758,-2.593Z" style="fill:#444;fill-rule:nonzero;"/><path d="M641.03,356.248c0.405,0 0.765,0.041 1.081,0.123l-0.184,0.817c-0.276,-0.088 -0.607,-0.132 -0.993,-0.132c-0.551,0 -1.076,0.188 -1.574,0.563c-0.498,0.375 -0.946,0.937 -1.344,1.687c-0.399,0.75 -0.692,1.562 -0.879,2.435l-0.879,4.228l-0.862,0l2.031,-9.554l0.703,0l-0.255,1.793l0.053,0c0.427,-0.551 0.788,-0.948 1.081,-1.191c0.293,-0.243 0.605,-0.432 0.936,-0.567c0.331,-0.135 0.693,-0.202 1.085,-0.202Z" style="fill:#444;fill-rule:nonzero;"/><path d="M646.717,356.23c1.054,0 1.87,0.318 2.448,0.954c0.577,0.636 0.865,1.513 0.865,2.632c0,1.155 -0.209,2.234 -0.628,3.239c-0.419,1.005 -0.992,1.771 -1.718,2.298c-0.727,0.528 -1.565,0.791 -2.514,0.791c-1.078,0 -1.897,-0.32 -2.457,-0.962c-0.559,-0.642 -0.839,-1.56 -0.839,-2.755c0,-1.12 0.214,-2.168 0.642,-3.147c0.427,-0.978 1.005,-1.731 1.731,-2.259c0.727,-0.527 1.55,-0.791 2.47,-0.791Zm-0.071,0.756c-0.726,0 -1.379,0.23 -1.959,0.69c-0.581,0.46 -1.043,1.119 -1.389,1.978c-0.346,0.858 -0.519,1.768 -0.519,2.729c0,2.004 0.826,3.006 2.479,3.006c0.744,0 1.405,-0.228 1.982,-0.682c0.577,-0.454 1.037,-1.122 1.38,-2.004c0.342,-0.881 0.514,-1.85 0.514,-2.904c0,-0.903 -0.214,-1.597 -0.642,-2.083c-0.428,-0.487 -1.043,-0.73 -1.846,-0.73Z" style="fill:#444;fill-rule:nonzero;"/><path d="M649.433,370.293c-0.364,0 -0.695,-0.056 -0.994,-0.167l0,-0.809c0.276,0.129 0.607,0.194 0.994,0.194c0.48,0 0.857,-0.151 1.129,-0.453c0.272,-0.302 0.485,-0.822 0.637,-1.56l2.338,-11.083l0.844,0l-2.356,11.171c-0.205,0.967 -0.517,1.659 -0.936,2.078c-0.419,0.419 -0.971,0.629 -1.656,0.629Zm4.535,-16.33c0,-0.323 0.064,-0.58 0.193,-0.774c0.129,-0.193 0.305,-0.29 0.527,-0.29c0.334,0 0.501,0.211 0.501,0.633c0,0.334 -0.064,0.598 -0.193,0.791c-0.129,0.193 -0.296,0.29 -0.501,0.29c-0.17,0 -0.3,-0.057 -0.391,-0.171c-0.091,-0.115 -0.136,-0.274 -0.136,-0.479Z" style="fill:#444;fill-rule:nonzero;"/><path d="M659.188,366.144c-1.013,0 -1.804,-0.32 -2.373,-0.962c-0.568,-0.642 -0.852,-1.537 -0.852,-2.685c0,-1.061 0.208,-2.077 0.624,-3.05c0.416,-0.973 0.989,-1.746 1.718,-2.32c0.73,-0.574 1.534,-0.862 2.413,-0.862c0.668,0 1.201,0.179 1.599,0.537c0.399,0.357 0.598,0.843 0.598,1.459c0,1.06 -0.479,1.869 -1.437,2.425c-0.958,0.557 -2.38,0.835 -4.267,0.835l-0.29,0c-0.035,0.258 -0.053,0.545 -0.053,0.862c0,0.966 0.217,1.703 0.651,2.21c0.433,0.507 1.057,0.76 1.872,0.76c0.773,0 1.582,-0.213 2.425,-0.641l0,0.826c-0.82,0.404 -1.696,0.606 -2.628,0.606Zm1.424,-9.123c-0.767,0 -1.481,0.339 -2.14,1.015c-0.659,0.677 -1.135,1.581 -1.428,2.712l0.431,0c3.029,0 4.544,-0.791 4.544,-2.373c0,-0.393 -0.128,-0.716 -0.383,-0.971c-0.255,-0.255 -0.596,-0.383 -1.024,-0.383Z" style="fill:#444;fill-rule:nonzero;"/><path d="M667.415,366.144c-1.019,0 -1.824,-0.323 -2.413,-0.971c-0.588,-0.647 -0.883,-1.545 -0.883,-2.694c0,-1.131 0.215,-2.19 0.646,-3.177c0.431,-0.987 1.012,-1.74 1.745,-2.259c0.732,-0.518 1.582,-0.778 2.549,-0.778c0.785,0 1.491,0.126 2.118,0.378l-0.246,0.791c-0.627,-0.275 -1.266,-0.413 -1.916,-0.413c-0.756,0 -1.437,0.226 -2.044,0.677c-0.606,0.451 -1.082,1.102 -1.428,1.951c-0.346,0.85 -0.519,1.787 -0.519,2.813c0,0.926 0.216,1.639 0.646,2.14c0.431,0.501 1.042,0.751 1.833,0.751c0.416,0 0.801,-0.038 1.156,-0.114c0.354,-0.076 0.739,-0.211 1.155,-0.404l0,0.808c-0.679,0.334 -1.479,0.501 -2.399,0.501Z" style="fill:#444;fill-rule:nonzero;"/><path d="M677.118,356.415l-0.158,0.712l-2.487,0l-1.187,5.581c-0.129,0.58 -0.193,1.06 -0.193,1.441c0,0.815 0.369,1.222 1.107,1.222c0.399,0 0.844,-0.076 1.336,-0.229l0,0.756c-0.592,0.164 -1.09,0.246 -1.494,0.246c-0.58,0 -1.028,-0.159 -1.345,-0.479c-0.316,-0.319 -0.474,-0.783 -0.474,-1.393c0,-0.427 0.085,-1.031 0.255,-1.81l1.133,-5.335l-1.599,0l0.123,-0.589l1.617,-0.149l0.852,-2.224l0.484,0l-0.484,2.25l2.514,0Z" style="fill:#444;fill-rule:nonzero;"/><path d="M677.153,365.485c0,-0.328 0.074,-0.587 0.22,-0.778c0.147,-0.19 0.349,-0.285 0.606,-0.285c0.387,0 0.581,0.211 0.581,0.633c0,0.31 -0.074,0.566 -0.22,0.769c-0.147,0.202 -0.343,0.303 -0.589,0.303c-0.398,0 -0.598,-0.214 -0.598,-0.642Z" style="fill:#444;fill-rule:nonzero;"/><path d="M681.416,365.485c0,-0.328 0.073,-0.587 0.22,-0.778c0.146,-0.19 0.348,-0.285 0.606,-0.285c0.387,0 0.58,0.211 0.58,0.633c0,0.31 -0.073,0.566 -0.219,0.769c-0.147,0.202 -0.343,0.303 -0.589,0.303c-0.399,0 -0.598,-0.214 -0.598,-0.642Z" style="fill:#444;fill-rule:nonzero;"/><path d="M685.679,365.485c0,-0.328 0.073,-0.587 0.219,-0.778c0.147,-0.19 0.349,-0.285 0.607,-0.285c0.387,0 0.58,0.211 0.58,0.633c0,0.31 -0.073,0.566 -0.22,0.769c-0.146,0.202 -0.343,0.303 -0.589,0.303c-0.398,0 -0.597,-0.214 -0.597,-0.642Z" style="fill:#444;fill-rule:nonzero;"/><g><path d="M813.887,78.192l-65.157,26.46c-2.17,0.881 -3.218,3.363 -2.335,5.535l19.045,46.898c0.881,2.17 3.362,3.218 5.529,2.338l65.16,-26.462c2.17,-0.881 3.218,-3.362 2.337,-5.532l-19.046,-46.898c-0.882,-2.172 -3.363,-3.22 -5.533,-2.339Zm-45.404,77.658l-19.046,-46.898c-0.2,-0.493 0.039,-1.058 0.529,-1.257l65.16,-26.462c0.49,-0.199 1.055,0.04 1.253,0.53l11.854,29.189l-17.719,-11.679c-0.463,-0.301 -1.058,-0.318 -1.549,-0.14c-0.508,0.217 -0.872,0.673 -0.97,1.216l-3.609,19.77l-11.417,-6.958c-0.446,-0.269 -0.992,-0.313 -1.473,-0.118c-0.003,0.001 -0.009,0.004 -0.015,0.006c-0.489,0.202 -0.845,0.627 -0.967,1.137l-8.799,37.328l-11.979,4.865c-0.49,0.199 -1.054,-0.04 -1.253,-0.529Zm66.41,-25.932l-49.447,20.081l7.749,-32.85l11.525,7.02c0.458,0.282 1.013,0.305 1.524,0.097c0.495,-0.222 0.847,-0.673 0.944,-1.202l3.596,-19.679l19.636,12.942l5.01,12.338c0.192,0.49 -0.047,1.055 -0.537,1.253Z" style="fill-rule:nonzero;"/><path d="M775.715,125.967c4.339,-1.762 6.432,-6.724 4.671,-11.06c-1.761,-4.336 -6.723,-6.439 -11.062,-4.677c-4.339,1.762 -6.435,6.725 -4.673,11.064c1.762,4.339 6.725,6.435 11.064,4.673Zm-5.156,-12.694c2.66,-1.08 5.702,0.204 6.783,2.867c1.08,2.659 -0.205,5.701 -2.864,6.781c-2.663,1.081 -5.705,-0.203 -6.785,-2.863c-1.08,-2.659 0.207,-5.705 2.866,-6.785Z" style="fill-rule:nonzero;"/></g><g><path d="M686.681,79.157l26.685,11.813c0.811,0.359 1.76,-0.008 2.119,-0.819c0.359,-0.811 -0.008,-1.76 -0.819,-2.119l-26.684,-11.814c-0.811,-0.359 -1.761,0.008 -2.12,0.819c-0.359,0.811 0.008,1.761 0.819,2.12Z" style="fill-rule:nonzero;"/><path d="M690.545,70.43l12.042,5.331c0.811,0.359 1.76,-0.008 2.119,-0.819c0.36,-0.811 -0.007,-1.761 -0.818,-2.12l-12.042,-5.331c-0.811,-0.359 -1.761,0.008 -2.12,0.819c-0.359,0.811 0.008,1.76 0.819,2.12Z" style="fill-rule:nonzero;"/><path d="M738.519,112.568l-37.953,-16.802c-2.513,-1.112 -5.459,0.026 -6.571,2.538l-9.027,20.39c-1.111,2.51 0.026,5.459 2.538,6.571l37.954,16.803c2.509,1.111 5.455,-0.027 6.568,-2.54l9.026,-20.39c1.113,-2.512 -0.025,-5.459 -2.535,-6.57Zm-9.43,25.659c-0.394,0.891 -1.438,1.296 -2.329,0.902l-37.953,-16.802c-0.89,-0.394 -1.295,-1.441 -0.901,-2.332l9.027,-20.39c0.394,-0.89 1.441,-1.295 2.332,-0.901l37.953,16.803c0.891,0.394 1.292,1.44 0.898,2.33l-9.027,20.39Z" style="fill-rule:nonzero;"/><path d="M712.535,139.92c-0.811,-0.359 -1.76,0.008 -2.119,0.819l-1.444,3.262c-0.214,0.482 -0.782,0.701 -1.267,0.486l-48.011,-21.255c-0.482,-0.213 -0.702,-0.781 -0.488,-1.263l27.768,-62.725c0.214,-0.482 0.782,-0.701 1.264,-0.488l36.716,16.255l-4.508,10.206c-0.359,0.811 0.008,1.761 0.819,2.12l10.696,4.735l-4.426,9.997c-0.359,0.811 0.008,1.76 0.819,2.119c0.811,0.359 1.761,-0.007 2.12,-0.819l5.077,-11.468c0.544,-1.229 0.199,-2.109 -0.099,-2.856l-5.54,-14.04c-0.401,-1.024 -1.18,-1.836 -2.191,-2.284l-0.003,-0.001l-38.179,-16.902c-2.104,-0.932 -4.572,0.021 -5.503,2.125l-27.77,62.728c-0.932,2.104 0.021,4.571 2.125,5.503l48.012,21.255c2.104,0.931 4.574,-0.02 5.506,-2.124l1.444,-3.262c0.36,-0.814 -0.007,-1.764 -0.818,-2.123Zm19.236,-51.45l-7.74,-3.427l3.373,-7.637l4.367,11.064Z" style="fill-rule:nonzero;"/><path d="M705.216,108.291l-2.882,-1.277c-0.811,-0.359 -1.761,0.008 -2.12,0.819l-3.931,8.88c-0.359,0.811 0.007,1.761 0.818,2.12l2.883,1.276c0.082,0.037 0.167,0.067 0.253,0.088c2.973,1.151 6.454,-0.408 7.856,-3.576c1.44,-3.253 0.15,-6.99 -2.877,-8.33Zm-3.926,8.868c-0.067,-0.03 -0.141,-0.055 -0.209,-0.075l-1.211,-0.536l2.631,-5.942l1.413,0.626c1.408,0.623 1.963,2.457 1.238,4.094c-0.725,1.637 -2.454,2.456 -3.862,1.833Z" style="fill-rule:nonzero;"/><path d="M727.592,127.78c-0.762,0.324 -1.572,0.327 -2.289,0.01c-1.498,-0.664 -2.13,-2.532 -1.405,-4.168c0.724,-1.637 2.532,-2.425 4.031,-1.762c0.684,0.303 1.218,0.877 1.498,1.616c0.312,0.827 1.241,1.245 2.073,0.931c0.828,-0.315 1.246,-1.244 0.931,-2.072c-0.585,-1.545 -1.725,-2.756 -3.203,-3.411c-3.12,-1.381 -6.828,0.144 -8.27,3.4c-1.441,3.256 -0.077,7.026 3.043,8.407c1.54,0.682 3.265,0.683 4.85,0.007c0.814,-0.346 1.197,-1.29 0.848,-2.105c-0.344,-0.817 -1.292,-1.202 -2.107,-0.853Z" style="fill-rule:nonzero;"/><path d="M717.246,113.617c-3.026,-1.34 -6.662,0.22 -8.106,3.482c-1.442,3.256 -0.154,6.999 2.873,8.339c3.027,1.34 6.665,-0.219 8.108,-3.478c1.444,-3.262 0.152,-7.004 -2.875,-8.343Zm-3.932,8.883c-1.408,-0.624 -1.962,-2.461 -1.236,-4.1c0.726,-1.64 2.463,-2.467 3.867,-1.845c1.408,0.623 1.963,2.465 1.238,4.104c-0.726,1.64 -2.462,2.464 -3.869,1.841Z" style="fill-rule:nonzero;"/></g></svg>