<?xml version="1.0" encoding="UTF-8" standalone="no"?>
<!DOCTYPE svg PUBLIC "-//W3C//DTD SVG 1.1//EN" "http://www.w3.org/Graphics/SVG/1.1/DTD/svg11.dtd">
<svg width="100%" height="100%" viewBox="0 0 900 400" version="1.1" xmlns="http://www.w3.org/2000/svg" xmlns:xlink="http://www.w3.org/1999/xlink" xml:space="preserve" xmlns:serif="http://www.serif.com/" style="fill-rule:evenodd;clip-rule:evenodd;stroke-linecap:square;stroke-miterlimit:1.41421;">
    <g transform="matrix(1,0,0,1,4.89027,0)">
        <g id="rocket">
        </g>
        <g>
            <g transform="matrix(0.654988,0,0,0.654988,500.527,-2.4436)">
                <rect x="275.51" y="248.408" width="186.051" height="26.369" style="fill:rgb(255,181,49);fill-rule:nonzero;"/>
            </g>
            <g transform="matrix(0.654988,0,0,0.654988,500.527,-2.4436)">
                <path d="M275.51,270.382L275.51,229.363L159.777,229.363L159.777,481.338L461.561,481.338L461.561,270.382L275.51,270.382Z" style="fill:rgb(255,203,49);fill-rule:nonzero;"/>
            </g>
            <g transform="matrix(0.654988,0,0,0.654988,500.527,-2.4436)">
                <path d="M275.51,270.382L278.44,270.382L278.44,229.363C278.44,228.591 278.127,227.837 277.581,227.291C277.036,226.746 276.281,226.433 275.51,226.433L159.777,226.433C159.006,226.433 158.251,226.746 157.705,227.291C157.16,227.837 156.847,228.591 156.847,229.363L156.847,481.338C156.847,482.109 157.16,482.864 157.705,483.409C158.251,483.955 159.006,484.268 159.777,484.268L461.56,484.268C462.332,484.268 463.087,483.955 463.632,483.409C464.178,482.864 464.49,482.109 464.49,481.338L464.49,270.382C464.49,269.611 464.178,268.856 463.632,268.31C463.087,267.765 462.332,267.452 461.561,267.452L275.51,267.452L275.51,270.382L278.44,270.382L275.51,270.382L275.51,273.312L458.631,273.312L458.631,478.408L162.707,478.408L162.707,232.293L272.58,232.293L272.58,270.382C272.58,271.154 272.892,271.908 273.438,272.454C273.983,272.999 274.738,273.312 275.51,273.312L275.51,270.382Z" style="fill:rgb(35,31,32);fill-rule:nonzero;"/>
            </g>
            <g transform="matrix(0.654988,0,0,0.654988,500.527,-2.4436)">
                <path d="M275.51,267.452L247.675,267.452L247.675,273.312L275.51,273.312" style="fill:rgb(35,31,32);fill-rule:nonzero;"/>
            </g>
            <g transform="matrix(0.654988,0,0,0.654988,500.527,-2.4436)">
                <path d="M397.102,411.019L397.102,348.025L419.108,348.025L381.588,297.955L344.071,348.025L363.408,348.025L363.408,411.019" style="fill:white;fill-rule:nonzero;"/>
            </g>
            <g transform="matrix(0.654988,0,0,0.654988,500.527,-2.4436)">
                <path d="M400.032,411.019L400.032,350.955L419.108,350.955C420.22,350.955 421.231,350.331 421.728,349.336C422.226,348.342 422.119,347.158 421.453,346.268L383.933,296.198C383.381,295.461 382.508,295.025 381.588,295.025C380.668,295.025 379.795,295.461 379.243,296.198L341.726,346.269C341.06,347.159 340.953,348.342 341.451,349.336C341.948,350.331 342.959,350.955 344.071,350.955L360.478,350.955L360.478,411.019L366.338,411.019L366.338,348.025C366.338,347.254 366.025,346.499 365.479,345.954C364.934,345.408 364.179,345.096 363.408,345.096L349.928,345.096L381.588,302.841L413.251,345.095L397.102,345.096C396.33,345.096 395.576,345.408 395.03,345.954C394.485,346.499 394.172,347.254 394.172,348.025L394.172,411.019L400.032,411.019Z" style="fill:rgb(35,31,32);fill-rule:nonzero;"/>
            </g>
            <g transform="matrix(0.654988,0,0,0.654988,500.527,-2.4436)">
                <path d="M446.911,318.726L446.911,381.72L424.643,381.72L462.163,431.79L499.68,381.72L480.605,381.72L480.605,318.726" style="fill:white;fill-rule:nonzero;"/>
            </g>
            <g transform="matrix(0.654988,0,0,0.654988,500.527,-2.4436)">
                <path d="M443.981,318.726L443.981,378.79L424.643,378.79C423.531,378.79 422.52,379.414 422.023,380.409C421.525,381.403 421.631,382.587 422.298,383.477L459.818,433.547C460.37,434.284 461.243,434.72 462.163,434.72C463.083,434.72 463.956,434.284 464.508,433.547L502.024,383.477C502.691,382.587 502.798,381.403 502.3,380.409C501.802,379.414 500.792,378.79 499.68,378.79L483.535,378.79L483.535,318.726L477.675,318.726L477.675,381.72C477.675,382.491 477.988,383.246 478.533,383.792C479.079,384.337 479.834,384.65 480.605,384.65L493.823,384.65L462.163,426.904L430.5,384.65L446.911,384.65C447.682,384.65 448.437,384.337 448.983,383.792C449.528,383.246 449.841,382.491 449.841,381.72L449.841,318.726L443.981,318.726Z" style="fill:rgb(35,31,32);fill-rule:nonzero;"/>
            </g>
            <g transform="matrix(0.654988,0,0,0.654988,500.527,-2.4436)">
                <path d="M433.726,321.656L492.325,321.656L492.325,315.796L433.726,315.796" style="fill:rgb(35,31,32);fill-rule:nonzero;"/>
            </g>
            <g transform="matrix(0.654988,0,0,0.654988,500.527,-2.4436)">
                <path d="M351.688,413.949L407.357,413.949L407.357,408.089L351.688,408.089" style="fill:rgb(35,31,32);fill-rule:nonzero;"/>
            </g>
            <g transform="matrix(0.654988,0,0,0.654988,500.527,-2.4436)">
                <path d="M465.955,402.229L465.955,396.369L460.096,396.369L460.096,402.229L465.955,402.229ZM465.955,390.51L465.955,384.65L460.096,384.65L460.096,390.51L465.955,390.51ZM465.955,378.79L465.955,372.93L460.096,372.93L460.096,378.79L465.955,378.79ZM465.955,367.07L465.955,361.21L460.096,361.21L460.096,367.07L465.955,367.07ZM465.955,355.35L465.955,349.49L460.096,349.49L460.096,355.35L465.955,355.35ZM465.955,343.631L465.955,337.771L460.096,337.771L460.096,343.631L465.955,343.631Z" style="fill:rgb(35,31,32);fill-rule:nonzero;"/>
            </g>
            <g transform="matrix(0.654988,0,0,0.654988,500.527,-2.4436)">
                <path d="M383.917,397.834L383.917,391.974L378.057,391.974L378.057,397.834L383.917,397.834ZM383.917,386.115L383.917,380.255L378.057,380.255L378.057,386.115L383.917,386.115ZM383.917,374.395L383.917,368.535L378.057,368.535L378.057,374.395L383.917,374.395ZM383.917,362.675L383.917,356.815L378.057,356.815L378.057,362.675L383.917,362.675ZM383.917,350.955L383.917,345.096L378.057,345.096L378.057,350.955L383.917,350.955ZM383.917,339.236L383.917,333.376L378.057,333.376L378.057,339.236L383.917,339.236Z" style="fill:rgb(35,31,32);fill-rule:nonzero;"/>
            </g>
            <g>
                <g transform="matrix(0.654988,0,0,0.654988,500.527,-2.4436)">
                    <path d="M156,436.337C166.058,436.337 175.384,439.354 183.085,444.676C188.31,438.736 195.489,434.543 203.637,433.188C203.298,430.902 203.121,428.553 203.121,426.174C203.121,399.807 224.499,378.424 250.863,378.424C277.229,378.424 298.609,399.789 298.609,426.158C298.609,430.048 298.128,433.818 297.252,437.434C300.78,436.599 304.464,436.338 308.254,436.338C334.622,436.338 355.993,456.433 355.993,484.268L108.256,484.268C108.256,456.433 129.628,436.337 156,436.337Z" style="fill:rgb(241,242,242);fill-rule:nonzero;stroke:black;stroke-width:6.11px;"/>
                </g>
                <g transform="matrix(0.654988,0,0,0.654988,500.527,-2.4436)">
                    <path d="M295.42,435.148C295.42,435.148 295.335,435.217 295.175,435.344C294.616,435.788 293.175,436.926 291.689,438.044C290.947,438.603 290.193,439.157 289.545,439.608C289.223,439.834 288.926,440.034 288.681,440.191C288.437,440.348 288.237,440.464 288.153,440.507L290.86,445.704C291.241,445.504 291.597,445.284 291.988,445.031C292.665,444.589 293.424,444.049 294.207,443.475C296.544,441.757 299.068,439.734 299.085,439.721L295.42,435.148Z" style="fill-rule:nonzero;"/>
                </g>
                <g transform="matrix(0.654988,0,0,0.654988,500.527,-2.4436)">
                    <path d="M180.556,446.059C180.594,446.124 181.202,447.188 181.782,448.559C182.072,449.243 182.355,450.003 182.56,450.729C182.767,451.454 182.888,452.148 182.902,452.649L188.759,452.463C188.717,451.247 188.477,450.105 188.17,449.035C187.707,447.434 187.08,445.993 186.565,444.92C186.05,443.849 185.644,443.152 185.614,443.102L180.556,446.059Z" style="fill-rule:nonzero;"/>
                </g>
            </g>
            <g transform="matrix(0.654988,0,0,0.654988,500.527,-2.4436)">
                <path d="M297.252,437.434C297.252,437.434 291.418,442.11 289.507,443.105" style="fill:rgb(209,211,212);fill-rule:nonzero;"/>
            </g>
            <g transform="matrix(0.654988,0,0,0.654988,500.527,-2.4436)">
                <path d="M183.085,444.58C183.085,444.58 185.72,449.088 185.83,452.556" style="fill:rgb(209,211,212);fill-rule:nonzero;"/>
            </g>
        </g>
        <g id="rest-smaller" transform="matrix(0.672052,-0.0796445,0.0796445,0.672052,216.439,71.7504)">
            <path d="M70.729,146.792L70.729,162.143L58.99,162.143L49.961,171.172L53.572,219.03L40.931,230.769L53.572,242.508L49.961,290.366L58.99,299.395L70.729,299.395L70.729,314.746L51.766,314.746L33.707,294.88L37.319,246.12L26.483,236.187L26.483,225.351L37.319,215.418L33.707,166.657L51.766,146.792L70.729,146.792Z" style="fill:rgb(26,184,138);"/>
            <path d="M603.244,146.792L603.244,162.143L614.983,162.143L624.012,171.172L620.4,219.03L633.042,230.769L620.4,242.508L624.012,290.366L614.983,299.395L603.244,299.395L603.244,314.746L622.206,314.746L640.266,294.88L636.654,246.12L647.49,236.187L647.49,225.351L636.654,215.418L640.266,166.657L622.206,146.792L603.244,146.792Z" style="fill:rgb(26,184,138);"/>
            <path d="M225.499,183.698L225.499,220.83L207.683,238.646L197.931,238.646L218.935,280.277L230.936,280.277L230.936,296.406L190.618,296.406L190.618,280.277L201.87,280.277L180.865,238.646L161.738,238.646L161.738,280.277L173.177,280.277L173.177,296.406L131.919,296.406L131.919,280.277L145.609,280.277L145.609,181.448L131.919,181.448L131.919,165.132L207.12,165.132L225.499,183.698ZM161.738,181.448L161.738,226.268L199.994,226.268L209.371,216.892L209.371,190.825L199.994,181.448L161.738,181.448Z" style="fill:rgb(2,159,198);fill-rule:nonzero;"/>
            <path d="M335.392,199.076L321.702,199.076L321.702,181.448L272.944,181.448L272.944,221.392L306.137,221.392L306.137,212.578L317.764,212.578L317.764,242.396L306.137,242.396L306.137,233.582L272.944,233.582L272.944,280.277L321.89,280.277L321.89,262.65L335.58,262.65L335.58,296.406L243.127,296.406L243.127,280.277L256.817,280.277L256.817,181.448L243.127,181.448L243.127,165.132L335.392,165.132L335.392,199.076Z" style="fill:rgb(2,159,198);fill-rule:nonzero;"/>
            <path d="M433.472,183.698L433.472,202.264L417.344,202.264L417.344,190.825L407.78,181.26L377.212,181.26L367.648,190.825L367.648,214.078L374.774,220.83L419.782,220.83L434.785,235.457L434.785,276.902L415.281,296.406L371.024,296.406L351.52,276.902L351.52,252.897L367.648,252.897L367.648,270.151L377.774,280.277L408.53,280.277L418.469,270.151L418.469,242.958L411.718,236.02L366.71,236.02L351.52,221.018L351.52,183.698L370.086,165.132L415.094,165.132L433.472,183.698Z" style="fill:rgb(2,159,198);fill-rule:nonzero;"/>
            <path d="M542.053,203.577L528.176,203.577L528.176,180.51L502.484,180.51L502.484,280.277L518.049,280.277L518.049,296.406L470.79,296.406L470.79,280.277L486.356,280.277L486.356,180.51L460.664,180.51L460.664,203.577L446.786,203.577L446.786,165.132L542.053,165.132L542.053,203.577Z" style="fill:rgb(2,159,198);fill-rule:nonzero;"/>
        </g>
    </g>
    <g id="hr" transform="matrix(1,0,0,0.264161,-18.261,246.639)">
        <rect x="74.321" y="331.777" width="787.881" height="2.976" style="fill:rgb(68,68,68);"/>
    </g>
    <g id="slogan-commons" transform="matrix(1,0,0,1,8.89491,8.18885)">
        <g transform="matrix(18,0,0,18,176.778,357.969)">
            <path d="M0.195,0.01C0.165,0.01 0.139,0.002 0.117,-0.013C0.095,-0.028 0.078,-0.049 0.067,-0.077C0.056,-0.105 0.05,-0.138 0.05,-0.176C0.05,-0.212 0.054,-0.247 0.061,-0.282C0.069,-0.317 0.08,-0.35 0.095,-0.381C0.11,-0.412 0.128,-0.439 0.149,-0.463C0.171,-0.487 0.196,-0.506 0.224,-0.52C0.252,-0.534 0.282,-0.541 0.316,-0.541C0.344,-0.541 0.368,-0.535 0.387,-0.523C0.406,-0.511 0.42,-0.496 0.431,-0.479C0.442,-0.461 0.45,-0.443 0.455,-0.424L0.458,-0.424L0.486,-0.531L0.525,-0.531L0.413,-0L0.373,-0L0.395,-0.124L0.393,-0.124C0.38,-0.104 0.364,-0.084 0.344,-0.063C0.324,-0.043 0.302,-0.025 0.277,-0.011C0.251,0.003 0.224,0.01 0.195,0.01ZM0.208,-0.033C0.236,-0.033 0.265,-0.043 0.294,-0.064C0.323,-0.084 0.348,-0.112 0.371,-0.147C0.394,-0.182 0.41,-0.221 0.42,-0.265C0.424,-0.285 0.428,-0.303 0.429,-0.318C0.431,-0.333 0.432,-0.347 0.432,-0.36C0.432,-0.403 0.422,-0.437 0.402,-0.461C0.382,-0.485 0.354,-0.498 0.319,-0.498C0.292,-0.498 0.266,-0.492 0.244,-0.479C0.221,-0.467 0.201,-0.451 0.183,-0.43C0.166,-0.409 0.151,-0.384 0.138,-0.357C0.126,-0.33 0.117,-0.3 0.11,-0.27C0.104,-0.239 0.101,-0.207 0.101,-0.176C0.101,-0.131 0.11,-0.096 0.128,-0.071C0.146,-0.046 0.173,-0.033 0.208,-0.033Z" style="fill-rule:nonzero;"/>
        </g>
        <g transform="matrix(18,0,0,18,186.763,357.969)">
            <path d="M0.198,0.01C0.166,0.01 0.139,0.002 0.117,-0.012C0.095,-0.027 0.078,-0.049 0.067,-0.076C0.055,-0.104 0.05,-0.137 0.05,-0.176C0.05,-0.211 0.054,-0.246 0.061,-0.281C0.069,-0.316 0.08,-0.349 0.094,-0.38C0.108,-0.411 0.127,-0.439 0.148,-0.463C0.17,-0.487 0.195,-0.506 0.223,-0.52C0.252,-0.534 0.284,-0.541 0.319,-0.541C0.349,-0.541 0.374,-0.535 0.395,-0.523C0.415,-0.512 0.431,-0.497 0.443,-0.479C0.455,-0.462 0.463,-0.443 0.467,-0.424L0.47,-0.424C0.472,-0.439 0.475,-0.454 0.477,-0.469C0.48,-0.485 0.483,-0.5 0.486,-0.514C0.489,-0.529 0.492,-0.544 0.495,-0.559L0.538,-0.76L0.586,-0.76L0.425,-0L0.384,-0L0.406,-0.125L0.403,-0.125C0.389,-0.103 0.371,-0.082 0.351,-0.061C0.331,-0.041 0.308,-0.024 0.282,-0.01C0.257,0.003 0.229,0.01 0.198,0.01ZM0.211,-0.033C0.229,-0.033 0.248,-0.037 0.267,-0.045C0.286,-0.053 0.304,-0.064 0.322,-0.079C0.339,-0.093 0.355,-0.111 0.37,-0.131C0.385,-0.151 0.398,-0.173 0.41,-0.198C0.421,-0.222 0.43,-0.248 0.436,-0.275C0.443,-0.303 0.446,-0.331 0.446,-0.36C0.446,-0.405 0.435,-0.439 0.412,-0.462C0.39,-0.486 0.36,-0.498 0.321,-0.498C0.292,-0.498 0.266,-0.491 0.243,-0.479C0.22,-0.467 0.2,-0.45 0.182,-0.429C0.164,-0.407 0.149,-0.383 0.137,-0.355C0.125,-0.328 0.116,-0.299 0.11,-0.268C0.104,-0.237 0.101,-0.206 0.101,-0.176C0.101,-0.13 0.11,-0.095 0.128,-0.07C0.147,-0.046 0.174,-0.033 0.211,-0.033Z" style="fill-rule:nonzero;"/>
        </g>
        <g transform="matrix(18,0,0,18,197.055,357.969)">
            <path d="M0.198,0.01C0.166,0.01 0.139,0.002 0.117,-0.012C0.095,-0.027 0.078,-0.049 0.067,-0.076C0.055,-0.104 0.05,-0.137 0.05,-0.176C0.05,-0.211 0.054,-0.246 0.061,-0.281C0.069,-0.316 0.08,-0.349 0.094,-0.38C0.108,-0.411 0.127,-0.439 0.148,-0.463C0.17,-0.487 0.195,-0.506 0.223,-0.52C0.252,-0.534 0.284,-0.541 0.319,-0.541C0.349,-0.541 0.374,-0.535 0.395,-0.523C0.415,-0.512 0.431,-0.497 0.443,-0.479C0.455,-0.462 0.463,-0.443 0.467,-0.424L0.47,-0.424C0.472,-0.439 0.475,-0.454 0.477,-0.469C0.48,-0.485 0.483,-0.5 0.486,-0.514C0.489,-0.529 0.492,-0.544 0.495,-0.559L0.538,-0.76L0.586,-0.76L0.425,-0L0.384,-0L0.406,-0.125L0.403,-0.125C0.389,-0.103 0.371,-0.082 0.351,-0.061C0.331,-0.041 0.308,-0.024 0.282,-0.01C0.257,0.003 0.229,0.01 0.198,0.01ZM0.211,-0.033C0.229,-0.033 0.248,-0.037 0.267,-0.045C0.286,-0.053 0.304,-0.064 0.322,-0.079C0.339,-0.093 0.355,-0.111 0.37,-0.131C0.385,-0.151 0.398,-0.173 0.41,-0.198C0.421,-0.222 0.43,-0.248 0.436,-0.275C0.443,-0.303 0.446,-0.331 0.446,-0.36C0.446,-0.405 0.435,-0.439 0.412,-0.462C0.39,-0.486 0.36,-0.498 0.321,-0.498C0.292,-0.498 0.266,-0.491 0.243,-0.479C0.22,-0.467 0.2,-0.45 0.182,-0.429C0.164,-0.407 0.149,-0.383 0.137,-0.355C0.125,-0.328 0.116,-0.299 0.11,-0.268C0.104,-0.237 0.101,-0.206 0.101,-0.176C0.101,-0.13 0.11,-0.095 0.128,-0.07C0.147,-0.046 0.174,-0.033 0.211,-0.033Z" style="fill-rule:nonzero;"/>
        </g>
        <g transform="matrix(18,0,0,18,207.347,357.969)">
            <path d="M0.161,0.01C0.127,0.01 0.097,0.006 0.072,-0.001C0.047,-0.009 0.026,-0.017 0.01,-0.026L0.01,-0.075C0.028,-0.064 0.051,-0.054 0.077,-0.046C0.104,-0.037 0.131,-0.033 0.16,-0.033C0.193,-0.033 0.22,-0.037 0.24,-0.046C0.261,-0.056 0.276,-0.068 0.286,-0.084C0.296,-0.1 0.301,-0.119 0.301,-0.14C0.301,-0.159 0.296,-0.175 0.288,-0.188C0.279,-0.2 0.267,-0.212 0.251,-0.222C0.235,-0.232 0.217,-0.243 0.196,-0.254C0.173,-0.267 0.153,-0.28 0.134,-0.293C0.116,-0.306 0.102,-0.32 0.091,-0.337C0.081,-0.353 0.076,-0.373 0.076,-0.397C0.076,-0.429 0.083,-0.455 0.099,-0.477C0.114,-0.498 0.135,-0.514 0.162,-0.525C0.189,-0.536 0.219,-0.541 0.252,-0.541C0.284,-0.541 0.313,-0.538 0.338,-0.531C0.363,-0.525 0.385,-0.517 0.404,-0.508L0.388,-0.466C0.371,-0.475 0.351,-0.482 0.327,-0.488C0.304,-0.494 0.279,-0.498 0.252,-0.498C0.215,-0.498 0.185,-0.49 0.161,-0.474C0.137,-0.458 0.125,-0.433 0.125,-0.4C0.125,-0.383 0.129,-0.369 0.137,-0.357C0.146,-0.345 0.158,-0.334 0.173,-0.325C0.189,-0.315 0.207,-0.304 0.228,-0.293C0.249,-0.281 0.27,-0.268 0.289,-0.255C0.307,-0.243 0.323,-0.228 0.334,-0.21C0.346,-0.193 0.352,-0.171 0.352,-0.144C0.352,-0.113 0.344,-0.087 0.33,-0.063C0.316,-0.04 0.295,-0.022 0.266,-0.01C0.238,0.003 0.203,0.01 0.161,0.01Z" style="fill-rule:nonzero;"/>
        </g>
        <g transform="matrix(18,0,0,18,219.695,357.969)">
            <path d="M-0.062,0.24C-0.073,0.24 -0.084,0.239 -0.096,0.237C-0.107,0.235 -0.117,0.233 -0.124,0.23L-0.124,0.186C-0.115,0.189 -0.105,0.192 -0.095,0.194C-0.085,0.196 -0.075,0.197 -0.065,0.197C-0.042,0.197 -0.023,0.188 -0.009,0.17C0.005,0.152 0.016,0.126 0.023,0.093L0.146,-0.49L0.054,-0.49L0.059,-0.518L0.155,-0.532L0.17,-0.601C0.176,-0.629 0.184,-0.653 0.194,-0.674C0.203,-0.695 0.215,-0.712 0.228,-0.725C0.242,-0.739 0.258,-0.749 0.277,-0.755C0.295,-0.762 0.317,-0.765 0.341,-0.765C0.357,-0.765 0.373,-0.764 0.387,-0.76C0.402,-0.757 0.414,-0.754 0.424,-0.75L0.411,-0.709C0.401,-0.713 0.39,-0.717 0.378,-0.719C0.367,-0.721 0.355,-0.723 0.342,-0.723C0.307,-0.723 0.28,-0.713 0.261,-0.694C0.242,-0.675 0.228,-0.643 0.219,-0.598L0.205,-0.531L0.322,-0.531L0.314,-0.49L0.196,-0.49L0.071,0.099C0.064,0.13 0.055,0.156 0.043,0.177C0.031,0.198 0.017,0.214 -0,0.225C-0.018,0.235 -0.038,0.24 -0.062,0.24ZM0.31,-0L0.471,-0.76L0.52,-0.76L0.359,-0L0.31,-0Z" style="fill-rule:nonzero;"/>
        </g>
        <g transform="matrix(18,0,0,18,228.792,357.969)">
            <path d="M0.245,0.01C0.21,0.01 0.178,0.002 0.15,-0.012C0.121,-0.027 0.099,-0.049 0.082,-0.079C0.065,-0.109 0.057,-0.147 0.057,-0.193C0.057,-0.239 0.063,-0.284 0.077,-0.325C0.09,-0.367 0.109,-0.404 0.133,-0.436C0.157,-0.469 0.185,-0.494 0.218,-0.513C0.251,-0.532 0.287,-0.541 0.327,-0.541C0.369,-0.541 0.402,-0.53 0.426,-0.509C0.45,-0.487 0.462,-0.459 0.462,-0.423C0.462,-0.393 0.454,-0.366 0.439,-0.344C0.424,-0.322 0.402,-0.304 0.374,-0.29C0.345,-0.275 0.311,-0.264 0.271,-0.257C0.231,-0.25 0.187,-0.247 0.138,-0.247L0.11,-0.247C0.109,-0.24 0.109,-0.232 0.108,-0.222C0.107,-0.213 0.107,-0.203 0.107,-0.194C0.107,-0.143 0.12,-0.103 0.146,-0.075C0.171,-0.047 0.207,-0.033 0.253,-0.033C0.281,-0.033 0.306,-0.037 0.329,-0.044C0.352,-0.052 0.373,-0.06 0.393,-0.069L0.393,-0.024C0.374,-0.015 0.352,-0.007 0.327,-0C0.302,0.006 0.275,0.01 0.245,0.01ZM0.118,-0.289L0.15,-0.289C0.2,-0.289 0.245,-0.294 0.284,-0.302C0.324,-0.311 0.355,-0.326 0.378,-0.345C0.402,-0.364 0.413,-0.389 0.413,-0.419C0.413,-0.442 0.406,-0.461 0.39,-0.476C0.375,-0.491 0.353,-0.498 0.322,-0.498C0.294,-0.498 0.266,-0.49 0.239,-0.474C0.211,-0.457 0.187,-0.434 0.165,-0.402C0.144,-0.371 0.128,-0.333 0.118,-0.289Z" style="fill-rule:nonzero;"/>
        </g>
        <g transform="matrix(18,0,0,18,237.687,357.969)">
            <path d="M-0.035,-0L0.202,-0.274L0.083,-0.531L0.136,-0.531L0.235,-0.309L0.426,-0.531L0.484,-0.531L0.257,-0.271L0.385,-0L0.333,-0L0.224,-0.236L0.024,-0L-0.035,-0Z" style="fill-rule:nonzero;"/>
        </g>
        <g transform="matrix(18,0,0,18,246.063,357.969)">
            <path d="M0.031,-0L0.143,-0.531L0.192,-0.531L0.08,-0L0.031,-0ZM0.198,-0.646C0.188,-0.646 0.181,-0.649 0.175,-0.655C0.169,-0.66 0.166,-0.668 0.166,-0.678C0.166,-0.686 0.167,-0.694 0.17,-0.701C0.173,-0.709 0.178,-0.715 0.184,-0.719C0.19,-0.724 0.198,-0.727 0.207,-0.727C0.217,-0.727 0.225,-0.724 0.23,-0.718C0.235,-0.712 0.237,-0.705 0.237,-0.696C0.237,-0.683 0.234,-0.671 0.226,-0.661C0.219,-0.651 0.209,-0.646 0.198,-0.646Z" style="fill-rule:nonzero;"/>
        </g>
        <g transform="matrix(18,0,0,18,250.132,357.969)">
            <path d="M0.25,0.01C0.22,0.01 0.195,0.004 0.175,-0.007C0.154,-0.018 0.138,-0.033 0.126,-0.051C0.114,-0.068 0.106,-0.087 0.101,-0.106L0.098,-0.106L0.07,-0L0.031,-0L0.191,-0.76L0.241,-0.76L0.198,-0.557C0.194,-0.54 0.19,-0.522 0.185,-0.503C0.181,-0.484 0.177,-0.466 0.172,-0.449C0.168,-0.432 0.165,-0.418 0.162,-0.407L0.164,-0.407C0.178,-0.428 0.195,-0.449 0.214,-0.47C0.234,-0.49 0.256,-0.507 0.282,-0.521C0.308,-0.534 0.336,-0.541 0.367,-0.541C0.398,-0.541 0.425,-0.533 0.448,-0.518C0.471,-0.503 0.488,-0.482 0.501,-0.455C0.513,-0.427 0.52,-0.394 0.52,-0.355C0.52,-0.32 0.516,-0.285 0.508,-0.25C0.501,-0.215 0.49,-0.182 0.476,-0.151C0.461,-0.12 0.443,-0.092 0.422,-0.068C0.4,-0.044 0.375,-0.025 0.346,-0.011C0.318,0.003 0.285,0.01 0.25,0.01ZM0.249,-0.033C0.277,-0.033 0.303,-0.039 0.326,-0.052C0.349,-0.064 0.37,-0.08 0.387,-0.102C0.405,-0.123 0.42,-0.148 0.432,-0.175C0.444,-0.203 0.453,-0.232 0.459,-0.263C0.466,-0.293 0.469,-0.324 0.469,-0.355C0.469,-0.4 0.459,-0.435 0.439,-0.46C0.419,-0.485 0.39,-0.498 0.353,-0.498C0.332,-0.498 0.312,-0.493 0.293,-0.485C0.273,-0.476 0.255,-0.465 0.238,-0.449C0.221,-0.434 0.205,-0.416 0.191,-0.395C0.177,-0.375 0.165,-0.352 0.155,-0.328C0.145,-0.303 0.137,-0.278 0.131,-0.251C0.126,-0.224 0.123,-0.197 0.123,-0.17C0.123,-0.126 0.134,-0.092 0.157,-0.068C0.179,-0.045 0.21,-0.033 0.249,-0.033Z" style="fill-rule:nonzero;"/>
        </g>
        <g transform="matrix(18,0,0,18,260.424,357.969)">
            <path d="M0.03,-0L0.191,-0.76L0.241,-0.76L0.08,-0L0.03,-0Z" style="fill-rule:nonzero;"/>
        </g>
        <g transform="matrix(18,0,0,18,264.493,357.969)">
            <path d="M0.245,0.01C0.21,0.01 0.178,0.002 0.15,-0.012C0.121,-0.027 0.099,-0.049 0.082,-0.079C0.065,-0.109 0.057,-0.147 0.057,-0.193C0.057,-0.239 0.063,-0.284 0.077,-0.325C0.09,-0.367 0.109,-0.404 0.133,-0.436C0.157,-0.469 0.185,-0.494 0.218,-0.513C0.251,-0.532 0.287,-0.541 0.327,-0.541C0.369,-0.541 0.402,-0.53 0.426,-0.509C0.45,-0.487 0.462,-0.459 0.462,-0.423C0.462,-0.393 0.454,-0.366 0.439,-0.344C0.424,-0.322 0.402,-0.304 0.374,-0.29C0.345,-0.275 0.311,-0.264 0.271,-0.257C0.231,-0.25 0.187,-0.247 0.138,-0.247L0.11,-0.247C0.109,-0.24 0.109,-0.232 0.108,-0.222C0.107,-0.213 0.107,-0.203 0.107,-0.194C0.107,-0.143 0.12,-0.103 0.146,-0.075C0.171,-0.047 0.207,-0.033 0.253,-0.033C0.281,-0.033 0.306,-0.037 0.329,-0.044C0.352,-0.052 0.373,-0.06 0.393,-0.069L0.393,-0.024C0.374,-0.015 0.352,-0.007 0.327,-0C0.302,0.006 0.275,0.01 0.245,0.01ZM0.118,-0.289L0.15,-0.289C0.2,-0.289 0.245,-0.294 0.284,-0.302C0.324,-0.311 0.355,-0.326 0.378,-0.345C0.402,-0.364 0.413,-0.389 0.413,-0.419C0.413,-0.442 0.406,-0.461 0.39,-0.476C0.375,-0.491 0.353,-0.498 0.322,-0.498C0.294,-0.498 0.266,-0.49 0.239,-0.474C0.211,-0.457 0.187,-0.434 0.165,-0.402C0.144,-0.371 0.128,-0.333 0.118,-0.289Z" style="fill-rule:nonzero;"/>
        </g>
        <g transform="matrix(18,0,0,18,278.064,357.969)">
            <path d="M0.195,0.01C0.165,0.01 0.139,0.002 0.117,-0.013C0.095,-0.028 0.078,-0.049 0.067,-0.077C0.056,-0.105 0.05,-0.138 0.05,-0.176C0.05,-0.212 0.054,-0.247 0.061,-0.282C0.069,-0.317 0.08,-0.35 0.095,-0.381C0.11,-0.412 0.128,-0.439 0.149,-0.463C0.171,-0.487 0.196,-0.506 0.224,-0.52C0.252,-0.534 0.282,-0.541 0.316,-0.541C0.344,-0.541 0.368,-0.535 0.387,-0.523C0.406,-0.511 0.42,-0.496 0.431,-0.479C0.442,-0.461 0.45,-0.443 0.455,-0.424L0.458,-0.424L0.486,-0.531L0.525,-0.531L0.413,-0L0.373,-0L0.395,-0.124L0.393,-0.124C0.38,-0.104 0.364,-0.084 0.344,-0.063C0.324,-0.043 0.302,-0.025 0.277,-0.011C0.251,0.003 0.224,0.01 0.195,0.01ZM0.208,-0.033C0.236,-0.033 0.265,-0.043 0.294,-0.064C0.323,-0.084 0.348,-0.112 0.371,-0.147C0.394,-0.182 0.41,-0.221 0.42,-0.265C0.424,-0.285 0.428,-0.303 0.429,-0.318C0.431,-0.333 0.432,-0.347 0.432,-0.36C0.432,-0.403 0.422,-0.437 0.402,-0.461C0.382,-0.485 0.354,-0.498 0.319,-0.498C0.292,-0.498 0.266,-0.492 0.244,-0.479C0.221,-0.467 0.201,-0.451 0.183,-0.43C0.166,-0.409 0.151,-0.384 0.138,-0.357C0.126,-0.33 0.117,-0.3 0.11,-0.27C0.104,-0.239 0.101,-0.207 0.101,-0.176C0.101,-0.131 0.11,-0.096 0.128,-0.071C0.146,-0.046 0.173,-0.033 0.208,-0.033Z" style="fill-rule:nonzero;"/>
        </g>
        <g transform="matrix(18,0,0,18,288.048,357.969)">
            <path d="M0.161,0.01C0.127,0.01 0.097,0.006 0.072,-0.001C0.047,-0.009 0.026,-0.017 0.01,-0.026L0.01,-0.075C0.028,-0.064 0.051,-0.054 0.077,-0.046C0.104,-0.037 0.131,-0.033 0.16,-0.033C0.193,-0.033 0.22,-0.037 0.24,-0.046C0.261,-0.056 0.276,-0.068 0.286,-0.084C0.296,-0.1 0.301,-0.119 0.301,-0.14C0.301,-0.159 0.296,-0.175 0.288,-0.188C0.279,-0.2 0.267,-0.212 0.251,-0.222C0.235,-0.232 0.217,-0.243 0.196,-0.254C0.173,-0.267 0.153,-0.28 0.134,-0.293C0.116,-0.306 0.102,-0.32 0.091,-0.337C0.081,-0.353 0.076,-0.373 0.076,-0.397C0.076,-0.429 0.083,-0.455 0.099,-0.477C0.114,-0.498 0.135,-0.514 0.162,-0.525C0.189,-0.536 0.219,-0.541 0.252,-0.541C0.284,-0.541 0.313,-0.538 0.338,-0.531C0.363,-0.525 0.385,-0.517 0.404,-0.508L0.388,-0.466C0.371,-0.475 0.351,-0.482 0.327,-0.488C0.304,-0.494 0.279,-0.498 0.252,-0.498C0.215,-0.498 0.185,-0.49 0.161,-0.474C0.137,-0.458 0.125,-0.433 0.125,-0.4C0.125,-0.383 0.129,-0.369 0.137,-0.357C0.146,-0.345 0.158,-0.334 0.173,-0.325C0.189,-0.315 0.207,-0.304 0.228,-0.293C0.249,-0.281 0.27,-0.268 0.289,-0.255C0.307,-0.243 0.323,-0.228 0.334,-0.21C0.346,-0.193 0.352,-0.171 0.352,-0.144C0.352,-0.113 0.344,-0.087 0.33,-0.063C0.316,-0.04 0.295,-0.022 0.266,-0.01C0.238,0.003 0.203,0.01 0.161,0.01Z" style="fill-rule:nonzero;"/>
        </g>
        <g transform="matrix(18,0,0,18,295.721,357.969)">
            <path d="M0.161,0.01C0.127,0.01 0.097,0.006 0.072,-0.001C0.047,-0.009 0.026,-0.017 0.01,-0.026L0.01,-0.075C0.028,-0.064 0.051,-0.054 0.077,-0.046C0.104,-0.037 0.131,-0.033 0.16,-0.033C0.193,-0.033 0.22,-0.037 0.24,-0.046C0.261,-0.056 0.276,-0.068 0.286,-0.084C0.296,-0.1 0.301,-0.119 0.301,-0.14C0.301,-0.159 0.296,-0.175 0.288,-0.188C0.279,-0.2 0.267,-0.212 0.251,-0.222C0.235,-0.232 0.217,-0.243 0.196,-0.254C0.173,-0.267 0.153,-0.28 0.134,-0.293C0.116,-0.306 0.102,-0.32 0.091,-0.337C0.081,-0.353 0.076,-0.373 0.076,-0.397C0.076,-0.429 0.083,-0.455 0.099,-0.477C0.114,-0.498 0.135,-0.514 0.162,-0.525C0.189,-0.536 0.219,-0.541 0.252,-0.541C0.284,-0.541 0.313,-0.538 0.338,-0.531C0.363,-0.525 0.385,-0.517 0.404,-0.508L0.388,-0.466C0.371,-0.475 0.351,-0.482 0.327,-0.488C0.304,-0.494 0.279,-0.498 0.252,-0.498C0.215,-0.498 0.185,-0.49 0.161,-0.474C0.137,-0.458 0.125,-0.433 0.125,-0.4C0.125,-0.383 0.129,-0.369 0.137,-0.357C0.146,-0.345 0.158,-0.334 0.173,-0.325C0.189,-0.315 0.207,-0.304 0.228,-0.293C0.249,-0.281 0.27,-0.268 0.289,-0.255C0.307,-0.243 0.323,-0.228 0.334,-0.21C0.346,-0.193 0.352,-0.171 0.352,-0.144C0.352,-0.113 0.344,-0.087 0.33,-0.063C0.316,-0.04 0.295,-0.022 0.266,-0.01C0.238,0.003 0.203,0.01 0.161,0.01Z" style="fill-rule:nonzero;"/>
        </g>
        <g transform="matrix(18,0,0,18,303.394,357.969)">
            <path d="M0.245,0.01C0.21,0.01 0.178,0.002 0.15,-0.012C0.121,-0.027 0.099,-0.049 0.082,-0.079C0.065,-0.109 0.057,-0.147 0.057,-0.193C0.057,-0.239 0.063,-0.284 0.077,-0.325C0.09,-0.367 0.109,-0.404 0.133,-0.436C0.157,-0.469 0.185,-0.494 0.218,-0.513C0.251,-0.532 0.287,-0.541 0.327,-0.541C0.369,-0.541 0.402,-0.53 0.426,-0.509C0.45,-0.487 0.462,-0.459 0.462,-0.423C0.462,-0.393 0.454,-0.366 0.439,-0.344C0.424,-0.322 0.402,-0.304 0.374,-0.29C0.345,-0.275 0.311,-0.264 0.271,-0.257C0.231,-0.25 0.187,-0.247 0.138,-0.247L0.11,-0.247C0.109,-0.24 0.109,-0.232 0.108,-0.222C0.107,-0.213 0.107,-0.203 0.107,-0.194C0.107,-0.143 0.12,-0.103 0.146,-0.075C0.171,-0.047 0.207,-0.033 0.253,-0.033C0.281,-0.033 0.306,-0.037 0.329,-0.044C0.352,-0.052 0.373,-0.06 0.393,-0.069L0.393,-0.024C0.374,-0.015 0.352,-0.007 0.327,-0C0.302,0.006 0.275,0.01 0.245,0.01ZM0.118,-0.289L0.15,-0.289C0.2,-0.289 0.245,-0.294 0.284,-0.302C0.324,-0.311 0.355,-0.326 0.378,-0.345C0.402,-0.364 0.413,-0.389 0.413,-0.419C0.413,-0.442 0.406,-0.461 0.39,-0.476C0.375,-0.491 0.353,-0.498 0.322,-0.498C0.294,-0.498 0.266,-0.49 0.239,-0.474C0.211,-0.457 0.187,-0.434 0.165,-0.402C0.144,-0.371 0.128,-0.333 0.118,-0.289Z" style="fill-rule:nonzero;"/>
        </g>
        <g transform="matrix(18,0,0,18,312.288,357.969)">
            <path d="M0.161,0.01C0.127,0.01 0.1,0.001 0.082,-0.015C0.063,-0.032 0.053,-0.057 0.053,-0.091C0.053,-0.1 0.054,-0.11 0.055,-0.121C0.056,-0.132 0.058,-0.143 0.061,-0.154L0.132,-0.49L0.053,-0.49L0.059,-0.519L0.141,-0.535L0.185,-0.659L0.218,-0.659L0.19,-0.531L0.343,-0.531L0.334,-0.49L0.182,-0.49L0.111,-0.156C0.109,-0.145 0.107,-0.135 0.105,-0.125C0.104,-0.115 0.103,-0.105 0.103,-0.097C0.103,-0.077 0.108,-0.062 0.118,-0.05C0.127,-0.038 0.144,-0.033 0.167,-0.033C0.181,-0.033 0.194,-0.034 0.206,-0.036C0.218,-0.038 0.23,-0.042 0.241,-0.045L0.241,-0.005C0.231,-0.001 0.22,0.002 0.206,0.005C0.192,0.008 0.177,0.01 0.161,0.01Z" style="fill-rule:nonzero;"/>
        </g>
        <g transform="matrix(18,0,0,18,322.686,357.969)">
            <path d="M0.161,0.01C0.127,0.01 0.097,0.006 0.072,-0.001C0.047,-0.009 0.026,-0.017 0.01,-0.026L0.01,-0.075C0.028,-0.064 0.051,-0.054 0.077,-0.046C0.104,-0.037 0.131,-0.033 0.16,-0.033C0.193,-0.033 0.22,-0.037 0.24,-0.046C0.261,-0.056 0.276,-0.068 0.286,-0.084C0.296,-0.1 0.301,-0.119 0.301,-0.14C0.301,-0.159 0.296,-0.175 0.288,-0.188C0.279,-0.2 0.267,-0.212 0.251,-0.222C0.235,-0.232 0.217,-0.243 0.196,-0.254C0.173,-0.267 0.153,-0.28 0.134,-0.293C0.116,-0.306 0.102,-0.32 0.091,-0.337C0.081,-0.353 0.076,-0.373 0.076,-0.397C0.076,-0.429 0.083,-0.455 0.099,-0.477C0.114,-0.498 0.135,-0.514 0.162,-0.525C0.189,-0.536 0.219,-0.541 0.252,-0.541C0.284,-0.541 0.313,-0.538 0.338,-0.531C0.363,-0.525 0.385,-0.517 0.404,-0.508L0.388,-0.466C0.371,-0.475 0.351,-0.482 0.327,-0.488C0.304,-0.494 0.279,-0.498 0.252,-0.498C0.215,-0.498 0.185,-0.49 0.161,-0.474C0.137,-0.458 0.125,-0.433 0.125,-0.4C0.125,-0.383 0.129,-0.369 0.137,-0.357C0.146,-0.345 0.158,-0.334 0.173,-0.325C0.189,-0.315 0.207,-0.304 0.228,-0.293C0.249,-0.281 0.27,-0.268 0.289,-0.255C0.307,-0.243 0.323,-0.228 0.334,-0.21C0.346,-0.193 0.352,-0.171 0.352,-0.144C0.352,-0.113 0.344,-0.087 0.33,-0.063C0.316,-0.04 0.295,-0.022 0.266,-0.01C0.238,0.003 0.203,0.01 0.161,0.01Z" style="fill-rule:nonzero;"/>
        </g>
        <g transform="matrix(18,0,0,18,330.359,357.969)">
            <path d="M0.245,0.01C0.21,0.01 0.178,0.002 0.15,-0.012C0.121,-0.027 0.099,-0.049 0.082,-0.079C0.065,-0.109 0.057,-0.147 0.057,-0.193C0.057,-0.239 0.063,-0.284 0.077,-0.325C0.09,-0.367 0.109,-0.404 0.133,-0.436C0.157,-0.469 0.185,-0.494 0.218,-0.513C0.251,-0.532 0.287,-0.541 0.327,-0.541C0.369,-0.541 0.402,-0.53 0.426,-0.509C0.45,-0.487 0.462,-0.459 0.462,-0.423C0.462,-0.393 0.454,-0.366 0.439,-0.344C0.424,-0.322 0.402,-0.304 0.374,-0.29C0.345,-0.275 0.311,-0.264 0.271,-0.257C0.231,-0.25 0.187,-0.247 0.138,-0.247L0.11,-0.247C0.109,-0.24 0.109,-0.232 0.108,-0.222C0.107,-0.213 0.107,-0.203 0.107,-0.194C0.107,-0.143 0.12,-0.103 0.146,-0.075C0.171,-0.047 0.207,-0.033 0.253,-0.033C0.281,-0.033 0.306,-0.037 0.329,-0.044C0.352,-0.052 0.373,-0.06 0.393,-0.069L0.393,-0.024C0.374,-0.015 0.352,-0.007 0.327,-0C0.302,0.006 0.275,0.01 0.245,0.01ZM0.118,-0.289L0.15,-0.289C0.2,-0.289 0.245,-0.294 0.284,-0.302C0.324,-0.311 0.355,-0.326 0.378,-0.345C0.402,-0.364 0.413,-0.389 0.413,-0.419C0.413,-0.442 0.406,-0.461 0.39,-0.476C0.375,-0.491 0.353,-0.498 0.322,-0.498C0.294,-0.498 0.266,-0.49 0.239,-0.474C0.211,-0.457 0.187,-0.434 0.165,-0.402C0.144,-0.371 0.128,-0.333 0.118,-0.289Z" style="fill-rule:nonzero;"/>
        </g>
        <g transform="matrix(18,0,0,18,339.253,357.969)">
            <path d="M0.031,-0L0.143,-0.531L0.184,-0.531L0.163,-0.407L0.166,-0.407C0.177,-0.426 0.192,-0.446 0.209,-0.466C0.227,-0.487 0.247,-0.504 0.271,-0.519C0.294,-0.533 0.32,-0.54 0.349,-0.54C0.36,-0.54 0.37,-0.539 0.38,-0.538C0.39,-0.536 0.399,-0.534 0.408,-0.532L0.397,-0.487C0.389,-0.489 0.381,-0.491 0.373,-0.492C0.364,-0.493 0.355,-0.494 0.345,-0.494C0.321,-0.494 0.298,-0.488 0.275,-0.475C0.253,-0.462 0.232,-0.445 0.213,-0.423C0.194,-0.401 0.178,-0.376 0.165,-0.347C0.151,-0.319 0.141,-0.29 0.134,-0.258L0.08,-0L0.031,-0Z" style="fill-rule:nonzero;"/>
        </g>
        <g transform="matrix(18,0,0,18,346.1,357.969)">
            <path d="M0.124,-0L0.049,-0.531L0.099,-0.531L0.146,-0.176C0.149,-0.16 0.151,-0.144 0.152,-0.129C0.154,-0.113 0.155,-0.098 0.156,-0.084C0.158,-0.07 0.158,-0.058 0.159,-0.048L0.161,-0.048C0.168,-0.061 0.174,-0.074 0.182,-0.089C0.189,-0.103 0.196,-0.118 0.204,-0.133C0.212,-0.148 0.219,-0.163 0.227,-0.177L0.427,-0.531L0.48,-0.531L0.18,-0L0.124,-0Z" style="fill-rule:nonzero;"/>
        </g>
        <g transform="matrix(18,0,0,18,353.86,357.969)">
            <path d="M0.031,-0L0.143,-0.531L0.192,-0.531L0.08,-0L0.031,-0ZM0.198,-0.646C0.188,-0.646 0.181,-0.649 0.175,-0.655C0.169,-0.66 0.166,-0.668 0.166,-0.678C0.166,-0.686 0.167,-0.694 0.17,-0.701C0.173,-0.709 0.178,-0.715 0.184,-0.719C0.19,-0.724 0.198,-0.727 0.207,-0.727C0.217,-0.727 0.225,-0.724 0.23,-0.718C0.235,-0.712 0.237,-0.705 0.237,-0.696C0.237,-0.683 0.234,-0.671 0.226,-0.661C0.219,-0.651 0.209,-0.646 0.198,-0.646Z" style="fill-rule:nonzero;"/>
        </g>
        <g transform="matrix(18,0,0,18,357.93,357.969)">
            <path d="M0.247,0.01C0.206,0.01 0.172,0.001 0.143,-0.015C0.114,-0.032 0.091,-0.056 0.076,-0.086C0.06,-0.116 0.053,-0.152 0.053,-0.192C0.053,-0.229 0.057,-0.265 0.065,-0.3C0.073,-0.334 0.084,-0.366 0.1,-0.396C0.116,-0.425 0.135,-0.45 0.157,-0.472C0.18,-0.494 0.206,-0.51 0.236,-0.523C0.265,-0.535 0.297,-0.541 0.333,-0.541C0.355,-0.541 0.378,-0.539 0.4,-0.535C0.422,-0.53 0.442,-0.524 0.459,-0.517L0.445,-0.473C0.43,-0.481 0.412,-0.487 0.392,-0.491C0.372,-0.495 0.352,-0.498 0.333,-0.498C0.298,-0.498 0.266,-0.49 0.238,-0.474C0.209,-0.458 0.185,-0.436 0.165,-0.408C0.145,-0.38 0.13,-0.348 0.119,-0.311C0.108,-0.275 0.103,-0.236 0.103,-0.194C0.103,-0.163 0.109,-0.135 0.12,-0.111C0.131,-0.087 0.148,-0.068 0.17,-0.054C0.192,-0.04 0.219,-0.033 0.251,-0.033C0.275,-0.033 0.297,-0.036 0.317,-0.042C0.338,-0.047 0.358,-0.055 0.379,-0.064L0.379,-0.02C0.362,-0.012 0.343,-0.004 0.321,0.001C0.299,0.007 0.274,0.01 0.247,0.01Z" style="fill-rule:nonzero;"/>
        </g>
        <g transform="matrix(18,0,0,18,366.077,357.969)">
            <path d="M0.245,0.01C0.21,0.01 0.178,0.002 0.15,-0.012C0.121,-0.027 0.099,-0.049 0.082,-0.079C0.065,-0.109 0.057,-0.147 0.057,-0.193C0.057,-0.239 0.063,-0.284 0.077,-0.325C0.09,-0.367 0.109,-0.404 0.133,-0.436C0.157,-0.469 0.185,-0.494 0.218,-0.513C0.251,-0.532 0.287,-0.541 0.327,-0.541C0.369,-0.541 0.402,-0.53 0.426,-0.509C0.45,-0.487 0.462,-0.459 0.462,-0.423C0.462,-0.393 0.454,-0.366 0.439,-0.344C0.424,-0.322 0.402,-0.304 0.374,-0.29C0.345,-0.275 0.311,-0.264 0.271,-0.257C0.231,-0.25 0.187,-0.247 0.138,-0.247L0.11,-0.247C0.109,-0.24 0.109,-0.232 0.108,-0.222C0.107,-0.213 0.107,-0.203 0.107,-0.194C0.107,-0.143 0.12,-0.103 0.146,-0.075C0.171,-0.047 0.207,-0.033 0.253,-0.033C0.281,-0.033 0.306,-0.037 0.329,-0.044C0.352,-0.052 0.373,-0.06 0.393,-0.069L0.393,-0.024C0.374,-0.015 0.352,-0.007 0.327,-0C0.302,0.006 0.275,0.01 0.245,0.01ZM0.118,-0.289L0.15,-0.289C0.2,-0.289 0.245,-0.294 0.284,-0.302C0.324,-0.311 0.355,-0.326 0.378,-0.345C0.402,-0.364 0.413,-0.389 0.413,-0.419C0.413,-0.442 0.406,-0.461 0.39,-0.476C0.375,-0.491 0.353,-0.498 0.322,-0.498C0.294,-0.498 0.266,-0.49 0.239,-0.474C0.211,-0.457 0.187,-0.434 0.165,-0.402C0.144,-0.371 0.128,-0.333 0.118,-0.289Z" style="fill-rule:nonzero;"/>
        </g>
        <g transform="matrix(18,0,0,18,374.972,357.969)">
            <path d="M0.161,0.01C0.127,0.01 0.097,0.006 0.072,-0.001C0.047,-0.009 0.026,-0.017 0.01,-0.026L0.01,-0.075C0.028,-0.064 0.051,-0.054 0.077,-0.046C0.104,-0.037 0.131,-0.033 0.16,-0.033C0.193,-0.033 0.22,-0.037 0.24,-0.046C0.261,-0.056 0.276,-0.068 0.286,-0.084C0.296,-0.1 0.301,-0.119 0.301,-0.14C0.301,-0.159 0.296,-0.175 0.288,-0.188C0.279,-0.2 0.267,-0.212 0.251,-0.222C0.235,-0.232 0.217,-0.243 0.196,-0.254C0.173,-0.267 0.153,-0.28 0.134,-0.293C0.116,-0.306 0.102,-0.32 0.091,-0.337C0.081,-0.353 0.076,-0.373 0.076,-0.397C0.076,-0.429 0.083,-0.455 0.099,-0.477C0.114,-0.498 0.135,-0.514 0.162,-0.525C0.189,-0.536 0.219,-0.541 0.252,-0.541C0.284,-0.541 0.313,-0.538 0.338,-0.531C0.363,-0.525 0.385,-0.517 0.404,-0.508L0.388,-0.466C0.371,-0.475 0.351,-0.482 0.327,-0.488C0.304,-0.494 0.279,-0.498 0.252,-0.498C0.215,-0.498 0.185,-0.49 0.161,-0.474C0.137,-0.458 0.125,-0.433 0.125,-0.4C0.125,-0.383 0.129,-0.369 0.137,-0.357C0.146,-0.345 0.158,-0.334 0.173,-0.325C0.189,-0.315 0.207,-0.304 0.228,-0.293C0.249,-0.281 0.27,-0.268 0.289,-0.255C0.307,-0.243 0.323,-0.228 0.334,-0.21C0.346,-0.193 0.352,-0.171 0.352,-0.144C0.352,-0.113 0.344,-0.087 0.33,-0.063C0.316,-0.04 0.295,-0.022 0.266,-0.01C0.238,0.003 0.203,0.01 0.161,0.01Z" style="fill-rule:nonzero;"/>
        </g>
        <g transform="matrix(18,0,0,18,387.32,357.969)">
            <path d="M0.084,-0L0.055,-0.531L0.104,-0.531L0.12,-0.191C0.122,-0.161 0.122,-0.136 0.122,-0.114C0.122,-0.092 0.122,-0.072 0.122,-0.055L0.124,-0.055C0.129,-0.067 0.134,-0.079 0.14,-0.093C0.146,-0.106 0.152,-0.12 0.159,-0.135C0.166,-0.151 0.174,-0.167 0.184,-0.185L0.357,-0.531L0.405,-0.531L0.436,-0.191C0.438,-0.166 0.439,-0.142 0.44,-0.119C0.441,-0.096 0.442,-0.075 0.442,-0.055L0.444,-0.055C0.449,-0.068 0.454,-0.082 0.46,-0.096C0.465,-0.111 0.472,-0.126 0.479,-0.143C0.487,-0.16 0.495,-0.179 0.504,-0.2L0.659,-0.531L0.711,-0.531L0.461,-0L0.407,-0L0.376,-0.352C0.375,-0.366 0.374,-0.379 0.374,-0.391C0.373,-0.403 0.372,-0.416 0.372,-0.428C0.372,-0.441 0.371,-0.456 0.371,-0.471L0.369,-0.471C0.363,-0.458 0.358,-0.445 0.352,-0.433C0.347,-0.421 0.341,-0.408 0.336,-0.396C0.33,-0.384 0.323,-0.37 0.316,-0.355L0.137,-0L0.084,-0Z" style="fill-rule:nonzero;"/>
        </g>
        <g transform="matrix(18,0,0,18,399.528,357.969)">
            <path d="M0.031,-0L0.143,-0.531L0.192,-0.531L0.08,-0L0.031,-0ZM0.198,-0.646C0.188,-0.646 0.181,-0.649 0.175,-0.655C0.169,-0.66 0.166,-0.668 0.166,-0.678C0.166,-0.686 0.167,-0.694 0.17,-0.701C0.173,-0.709 0.178,-0.715 0.184,-0.719C0.19,-0.724 0.198,-0.727 0.207,-0.727C0.217,-0.727 0.225,-0.724 0.23,-0.718C0.235,-0.712 0.237,-0.705 0.237,-0.696C0.237,-0.683 0.234,-0.671 0.226,-0.661C0.219,-0.651 0.209,-0.646 0.198,-0.646Z" style="fill-rule:nonzero;"/>
        </g>
        <g transform="matrix(18,0,0,18,403.598,357.969)">
            <path d="M0.161,0.01C0.127,0.01 0.1,0.001 0.082,-0.015C0.063,-0.032 0.053,-0.057 0.053,-0.091C0.053,-0.1 0.054,-0.11 0.055,-0.121C0.056,-0.132 0.058,-0.143 0.061,-0.154L0.132,-0.49L0.053,-0.49L0.059,-0.519L0.141,-0.535L0.185,-0.659L0.218,-0.659L0.19,-0.531L0.343,-0.531L0.334,-0.49L0.182,-0.49L0.111,-0.156C0.109,-0.145 0.107,-0.135 0.105,-0.125C0.104,-0.115 0.103,-0.105 0.103,-0.097C0.103,-0.077 0.108,-0.062 0.118,-0.05C0.127,-0.038 0.144,-0.033 0.167,-0.033C0.181,-0.033 0.194,-0.034 0.206,-0.036C0.218,-0.038 0.23,-0.042 0.241,-0.045L0.241,-0.005C0.231,-0.001 0.22,0.002 0.206,0.005C0.192,0.008 0.177,0.01 0.161,0.01Z" style="fill-rule:nonzero;"/>
        </g>
        <g transform="matrix(18,0,0,18,409.319,357.969)">
            <path d="M0.031,-0L0.191,-0.76L0.241,-0.76L0.198,-0.56C0.194,-0.543 0.19,-0.526 0.186,-0.508C0.182,-0.491 0.178,-0.473 0.174,-0.456C0.17,-0.439 0.166,-0.423 0.162,-0.407L0.165,-0.407C0.177,-0.427 0.192,-0.447 0.211,-0.467C0.231,-0.488 0.253,-0.505 0.28,-0.519C0.307,-0.533 0.336,-0.541 0.369,-0.541C0.398,-0.541 0.422,-0.536 0.442,-0.526C0.462,-0.516 0.478,-0.501 0.488,-0.481C0.499,-0.462 0.504,-0.438 0.504,-0.408C0.504,-0.397 0.503,-0.386 0.502,-0.374C0.5,-0.362 0.498,-0.349 0.495,-0.336L0.424,-0L0.375,-0L0.447,-0.342C0.45,-0.354 0.452,-0.365 0.453,-0.376C0.454,-0.386 0.455,-0.395 0.455,-0.403C0.455,-0.435 0.446,-0.458 0.43,-0.474C0.413,-0.49 0.389,-0.498 0.358,-0.498C0.326,-0.498 0.295,-0.488 0.265,-0.468C0.234,-0.448 0.208,-0.42 0.185,-0.384C0.161,-0.348 0.145,-0.306 0.134,-0.258L0.08,-0L0.031,-0Z" style="fill-rule:nonzero;"/>
        </g>
        <g transform="matrix(18,0,0,18,424.129,357.969)">
            <path d="M0.195,0.01C0.165,0.01 0.139,0.002 0.117,-0.013C0.095,-0.028 0.078,-0.049 0.067,-0.077C0.056,-0.105 0.05,-0.138 0.05,-0.176C0.05,-0.212 0.054,-0.247 0.061,-0.282C0.069,-0.317 0.08,-0.35 0.095,-0.381C0.11,-0.412 0.128,-0.439 0.149,-0.463C0.171,-0.487 0.196,-0.506 0.224,-0.52C0.252,-0.534 0.282,-0.541 0.316,-0.541C0.344,-0.541 0.368,-0.535 0.387,-0.523C0.406,-0.511 0.42,-0.496 0.431,-0.479C0.442,-0.461 0.45,-0.443 0.455,-0.424L0.458,-0.424L0.486,-0.531L0.525,-0.531L0.413,-0L0.373,-0L0.395,-0.124L0.393,-0.124C0.38,-0.104 0.364,-0.084 0.344,-0.063C0.324,-0.043 0.302,-0.025 0.277,-0.011C0.251,0.003 0.224,0.01 0.195,0.01ZM0.208,-0.033C0.236,-0.033 0.265,-0.043 0.294,-0.064C0.323,-0.084 0.348,-0.112 0.371,-0.147C0.394,-0.182 0.41,-0.221 0.42,-0.265C0.424,-0.285 0.428,-0.303 0.429,-0.318C0.431,-0.333 0.432,-0.347 0.432,-0.36C0.432,-0.403 0.422,-0.437 0.402,-0.461C0.382,-0.485 0.354,-0.498 0.319,-0.498C0.292,-0.498 0.266,-0.492 0.244,-0.479C0.221,-0.467 0.201,-0.451 0.183,-0.43C0.166,-0.409 0.151,-0.384 0.138,-0.357C0.126,-0.33 0.117,-0.3 0.11,-0.27C0.104,-0.239 0.101,-0.207 0.101,-0.176C0.101,-0.131 0.11,-0.096 0.128,-0.071C0.146,-0.046 0.173,-0.033 0.208,-0.033Z" style="fill-rule:nonzero;"/>
        </g>
        <g transform="matrix(18,0,0,18,438.789,357.969)">
            <path d="M0.25,0.01C0.22,0.01 0.195,0.004 0.175,-0.007C0.154,-0.018 0.138,-0.033 0.126,-0.051C0.114,-0.068 0.106,-0.087 0.101,-0.106L0.098,-0.106L0.07,-0L0.031,-0L0.191,-0.76L0.241,-0.76L0.198,-0.557C0.194,-0.54 0.19,-0.522 0.185,-0.503C0.181,-0.484 0.177,-0.466 0.172,-0.449C0.168,-0.432 0.165,-0.418 0.162,-0.407L0.164,-0.407C0.178,-0.428 0.195,-0.449 0.214,-0.47C0.234,-0.49 0.256,-0.507 0.282,-0.521C0.308,-0.534 0.336,-0.541 0.367,-0.541C0.398,-0.541 0.425,-0.533 0.448,-0.518C0.471,-0.503 0.488,-0.482 0.501,-0.455C0.513,-0.427 0.52,-0.394 0.52,-0.355C0.52,-0.32 0.516,-0.285 0.508,-0.25C0.501,-0.215 0.49,-0.182 0.476,-0.151C0.461,-0.12 0.443,-0.092 0.422,-0.068C0.4,-0.044 0.375,-0.025 0.346,-0.011C0.318,0.003 0.285,0.01 0.25,0.01ZM0.249,-0.033C0.277,-0.033 0.303,-0.039 0.326,-0.052C0.349,-0.064 0.37,-0.08 0.387,-0.102C0.405,-0.123 0.42,-0.148 0.432,-0.175C0.444,-0.203 0.453,-0.232 0.459,-0.263C0.466,-0.293 0.469,-0.324 0.469,-0.355C0.469,-0.4 0.459,-0.435 0.439,-0.46C0.419,-0.485 0.39,-0.498 0.353,-0.498C0.332,-0.498 0.312,-0.493 0.293,-0.485C0.273,-0.476 0.255,-0.465 0.238,-0.449C0.221,-0.434 0.205,-0.416 0.191,-0.395C0.177,-0.375 0.165,-0.352 0.155,-0.328C0.145,-0.303 0.137,-0.278 0.131,-0.251C0.126,-0.224 0.123,-0.197 0.123,-0.17C0.123,-0.126 0.134,-0.092 0.157,-0.068C0.179,-0.045 0.21,-0.033 0.249,-0.033Z" style="fill-rule:nonzero;"/>
        </g>
        <g transform="matrix(18,0,0,18,449.081,357.969)">
            <path d="M0.189,0.01C0.161,0.01 0.137,0.005 0.117,-0.005C0.097,-0.015 0.082,-0.03 0.071,-0.049C0.06,-0.069 0.055,-0.093 0.055,-0.121C0.055,-0.132 0.056,-0.144 0.058,-0.157C0.06,-0.169 0.062,-0.182 0.064,-0.195L0.135,-0.531L0.185,-0.531L0.112,-0.189C0.11,-0.177 0.108,-0.165 0.106,-0.155C0.105,-0.145 0.104,-0.135 0.104,-0.127C0.104,-0.095 0.113,-0.072 0.129,-0.056C0.146,-0.041 0.17,-0.033 0.202,-0.033C0.233,-0.033 0.264,-0.043 0.295,-0.063C0.325,-0.083 0.352,-0.111 0.375,-0.147C0.399,-0.183 0.415,-0.225 0.425,-0.273L0.48,-0.531L0.529,-0.531L0.416,-0L0.375,-0L0.397,-0.124L0.394,-0.124C0.382,-0.105 0.367,-0.085 0.347,-0.064C0.328,-0.044 0.305,-0.026 0.279,-0.012C0.253,0.003 0.223,0.01 0.189,0.01Z" style="fill-rule:nonzero;"/>
        </g>
        <g transform="matrix(18,0,0,18,459.215,357.969)">
            <path d="M0.029,-0L0.142,-0.532L0.185,-0.532L0.164,-0.408L0.165,-0.408C0.177,-0.428 0.192,-0.448 0.211,-0.468C0.231,-0.489 0.253,-0.506 0.28,-0.521C0.307,-0.535 0.336,-0.542 0.369,-0.542C0.398,-0.542 0.423,-0.537 0.443,-0.527C0.463,-0.517 0.479,-0.502 0.49,-0.482C0.5,-0.463 0.505,-0.439 0.505,-0.411C0.505,-0.399 0.504,-0.386 0.503,-0.373C0.501,-0.36 0.499,-0.347 0.496,-0.335L0.425,-0L0.373,-0L0.446,-0.342C0.448,-0.355 0.45,-0.366 0.452,-0.376C0.453,-0.386 0.454,-0.396 0.454,-0.404C0.454,-0.436 0.445,-0.459 0.429,-0.474C0.412,-0.489 0.389,-0.497 0.358,-0.497C0.326,-0.497 0.295,-0.487 0.265,-0.467C0.235,-0.447 0.209,-0.419 0.186,-0.383C0.162,-0.347 0.146,-0.306 0.136,-0.258L0.081,-0L0.029,-0Z" style="fill-rule:nonzero;"/>
        </g>
        <g transform="matrix(18,0,0,18,469.349,357.969)">
            <path d="M0.247,0.01C0.206,0.01 0.172,0.001 0.143,-0.015C0.114,-0.032 0.091,-0.056 0.076,-0.086C0.06,-0.116 0.053,-0.152 0.053,-0.192C0.053,-0.229 0.057,-0.265 0.065,-0.3C0.073,-0.334 0.084,-0.366 0.1,-0.396C0.116,-0.425 0.135,-0.45 0.157,-0.472C0.18,-0.494 0.206,-0.51 0.236,-0.523C0.265,-0.535 0.297,-0.541 0.333,-0.541C0.355,-0.541 0.378,-0.539 0.4,-0.535C0.422,-0.53 0.442,-0.524 0.459,-0.517L0.445,-0.473C0.43,-0.481 0.412,-0.487 0.392,-0.491C0.372,-0.495 0.352,-0.498 0.333,-0.498C0.298,-0.498 0.266,-0.49 0.238,-0.474C0.209,-0.458 0.185,-0.436 0.165,-0.408C0.145,-0.38 0.13,-0.348 0.119,-0.311C0.108,-0.275 0.103,-0.236 0.103,-0.194C0.103,-0.163 0.109,-0.135 0.12,-0.111C0.131,-0.087 0.148,-0.068 0.17,-0.054C0.192,-0.04 0.219,-0.033 0.251,-0.033C0.275,-0.033 0.297,-0.036 0.317,-0.042C0.338,-0.047 0.358,-0.055 0.379,-0.064L0.379,-0.02C0.362,-0.012 0.343,-0.004 0.321,0.001C0.299,0.007 0.274,0.01 0.247,0.01Z" style="fill-rule:nonzero;"/>
        </g>
        <g transform="matrix(18,0,0,18,477.496,357.969)">
            <path d="M0.031,-0L0.191,-0.76L0.241,-0.76L0.198,-0.56C0.194,-0.543 0.19,-0.526 0.186,-0.508C0.182,-0.491 0.178,-0.473 0.174,-0.456C0.17,-0.439 0.166,-0.423 0.162,-0.407L0.165,-0.407C0.177,-0.427 0.192,-0.447 0.211,-0.467C0.231,-0.488 0.253,-0.505 0.28,-0.519C0.307,-0.533 0.336,-0.541 0.369,-0.541C0.398,-0.541 0.422,-0.536 0.442,-0.526C0.462,-0.516 0.478,-0.501 0.488,-0.481C0.499,-0.462 0.504,-0.438 0.504,-0.408C0.504,-0.397 0.503,-0.386 0.502,-0.374C0.5,-0.362 0.498,-0.349 0.495,-0.336L0.424,-0L0.375,-0L0.447,-0.342C0.45,-0.354 0.452,-0.365 0.453,-0.376C0.454,-0.386 0.455,-0.395 0.455,-0.403C0.455,-0.435 0.446,-0.458 0.43,-0.474C0.413,-0.49 0.389,-0.498 0.358,-0.498C0.326,-0.498 0.295,-0.488 0.265,-0.468C0.234,-0.448 0.208,-0.42 0.185,-0.384C0.161,-0.348 0.145,-0.306 0.134,-0.258L0.08,-0L0.031,-0Z" style="fill-rule:nonzero;"/>
        </g>
        <g transform="matrix(18,0,0,18,492.306,357.969)">
            <path d="M0.241,0.009C0.2,0.009 0.165,0 0.137,-0.017C0.109,-0.034 0.088,-0.057 0.074,-0.088C0.06,-0.118 0.053,-0.154 0.053,-0.194C0.053,-0.233 0.057,-0.27 0.065,-0.304C0.073,-0.339 0.086,-0.37 0.101,-0.399C0.117,-0.428 0.136,-0.453 0.158,-0.474C0.181,-0.495 0.206,-0.511 0.234,-0.523C0.262,-0.534 0.293,-0.54 0.325,-0.54C0.366,-0.54 0.4,-0.531 0.427,-0.514C0.455,-0.497 0.476,-0.473 0.49,-0.443C0.505,-0.412 0.512,-0.377 0.512,-0.337C0.512,-0.301 0.508,-0.266 0.501,-0.232C0.493,-0.199 0.482,-0.167 0.467,-0.138C0.452,-0.108 0.433,-0.083 0.411,-0.061C0.389,-0.039 0.364,-0.022 0.336,-0.01C0.307,0.003 0.276,0.009 0.241,0.009ZM0.245,-0.034C0.271,-0.034 0.295,-0.039 0.318,-0.049C0.34,-0.059 0.36,-0.073 0.378,-0.091C0.395,-0.109 0.411,-0.131 0.423,-0.156C0.436,-0.182 0.445,-0.21 0.452,-0.241C0.458,-0.272 0.461,-0.306 0.461,-0.341C0.461,-0.37 0.457,-0.396 0.447,-0.42C0.437,-0.443 0.422,-0.462 0.402,-0.476C0.382,-0.49 0.356,-0.497 0.325,-0.497C0.299,-0.497 0.274,-0.492 0.252,-0.483C0.229,-0.473 0.209,-0.46 0.191,-0.442C0.172,-0.424 0.157,-0.403 0.144,-0.377C0.131,-0.352 0.121,-0.324 0.114,-0.293C0.107,-0.262 0.103,-0.229 0.103,-0.193C0.103,-0.144 0.115,-0.105 0.139,-0.076C0.163,-0.048 0.198,-0.034 0.245,-0.034Z" style="fill-rule:nonzero;"/>
        </g>
        <g transform="matrix(18,0,0,18,502.457,357.969)">
            <path d="M-0.062,0.24C-0.073,0.24 -0.084,0.239 -0.096,0.237C-0.107,0.235 -0.117,0.233 -0.124,0.23L-0.124,0.186C-0.115,0.189 -0.105,0.192 -0.095,0.194C-0.085,0.196 -0.075,0.197 -0.065,0.197C-0.042,0.197 -0.023,0.188 -0.009,0.17C0.005,0.152 0.016,0.126 0.023,0.093L0.146,-0.49L0.054,-0.49L0.059,-0.518L0.155,-0.532L0.17,-0.601C0.176,-0.629 0.184,-0.653 0.194,-0.674C0.203,-0.695 0.215,-0.712 0.228,-0.725C0.242,-0.739 0.258,-0.749 0.277,-0.755C0.295,-0.762 0.317,-0.765 0.341,-0.765C0.357,-0.765 0.373,-0.764 0.387,-0.76C0.402,-0.757 0.414,-0.754 0.424,-0.75L0.411,-0.709C0.401,-0.713 0.39,-0.717 0.378,-0.719C0.367,-0.721 0.355,-0.723 0.342,-0.723C0.307,-0.723 0.28,-0.713 0.261,-0.694C0.242,-0.675 0.228,-0.643 0.219,-0.598L0.205,-0.531L0.322,-0.531L0.314,-0.49L0.196,-0.49L0.071,0.099C0.064,0.13 0.055,0.156 0.043,0.177C0.031,0.198 0.017,0.214 -0,0.225C-0.018,0.235 -0.038,0.24 -0.062,0.24Z" style="fill-rule:nonzero;"/>
        </g>
        <g transform="matrix(18,0,0,18,512.248,357.969)">
            <path d="M-0.062,0.24C-0.073,0.24 -0.084,0.239 -0.096,0.237C-0.107,0.235 -0.117,0.233 -0.124,0.23L-0.124,0.186C-0.115,0.189 -0.105,0.192 -0.095,0.194C-0.085,0.196 -0.075,0.197 -0.065,0.197C-0.042,0.197 -0.023,0.188 -0.009,0.17C0.005,0.152 0.016,0.126 0.023,0.093L0.146,-0.49L0.054,-0.49L0.059,-0.518L0.155,-0.532L0.17,-0.601C0.176,-0.629 0.184,-0.653 0.194,-0.674C0.203,-0.695 0.215,-0.712 0.228,-0.725C0.242,-0.739 0.258,-0.749 0.277,-0.755C0.295,-0.762 0.317,-0.765 0.341,-0.765C0.357,-0.765 0.373,-0.764 0.387,-0.76C0.402,-0.757 0.414,-0.754 0.424,-0.75L0.411,-0.709C0.401,-0.713 0.39,-0.717 0.378,-0.719C0.367,-0.721 0.355,-0.723 0.342,-0.723C0.307,-0.723 0.28,-0.713 0.261,-0.694C0.242,-0.675 0.228,-0.643 0.219,-0.598L0.205,-0.531L0.322,-0.531L0.314,-0.49L0.196,-0.49L0.071,0.099C0.064,0.13 0.055,0.156 0.043,0.177C0.031,0.198 0.017,0.214 -0,0.225C-0.018,0.235 -0.038,0.24 -0.062,0.24Z" style="fill-rule:nonzero;"/>
        </g>
        <g transform="matrix(18,0,0,18,517.363,357.969)">
            <path d="M0.245,0.01C0.21,0.01 0.178,0.002 0.15,-0.012C0.121,-0.027 0.099,-0.049 0.082,-0.079C0.065,-0.109 0.057,-0.147 0.057,-0.193C0.057,-0.239 0.063,-0.284 0.077,-0.325C0.09,-0.367 0.109,-0.404 0.133,-0.436C0.157,-0.469 0.185,-0.494 0.218,-0.513C0.251,-0.532 0.287,-0.541 0.327,-0.541C0.369,-0.541 0.402,-0.53 0.426,-0.509C0.45,-0.487 0.462,-0.459 0.462,-0.423C0.462,-0.393 0.454,-0.366 0.439,-0.344C0.424,-0.322 0.402,-0.304 0.374,-0.29C0.345,-0.275 0.311,-0.264 0.271,-0.257C0.231,-0.25 0.187,-0.247 0.138,-0.247L0.11,-0.247C0.109,-0.24 0.109,-0.232 0.108,-0.222C0.107,-0.213 0.107,-0.203 0.107,-0.194C0.107,-0.143 0.12,-0.103 0.146,-0.075C0.171,-0.047 0.207,-0.033 0.253,-0.033C0.281,-0.033 0.306,-0.037 0.329,-0.044C0.352,-0.052 0.373,-0.06 0.393,-0.069L0.393,-0.024C0.374,-0.015 0.352,-0.007 0.327,-0C0.302,0.006 0.275,0.01 0.245,0.01ZM0.118,-0.289L0.15,-0.289C0.2,-0.289 0.245,-0.294 0.284,-0.302C0.324,-0.311 0.355,-0.326 0.378,-0.345C0.402,-0.364 0.413,-0.389 0.413,-0.419C0.413,-0.442 0.406,-0.461 0.39,-0.476C0.375,-0.491 0.353,-0.498 0.322,-0.498C0.294,-0.498 0.266,-0.49 0.239,-0.474C0.211,-0.457 0.187,-0.434 0.165,-0.402C0.144,-0.371 0.128,-0.333 0.118,-0.289Z" style="fill-rule:nonzero;"/>
        </g>
        <g transform="matrix(18,0,0,18,526.258,357.969)">
            <path d="M0.195,0.01C0.165,0.01 0.139,0.002 0.117,-0.013C0.095,-0.028 0.078,-0.049 0.067,-0.077C0.056,-0.105 0.05,-0.138 0.05,-0.176C0.05,-0.212 0.054,-0.247 0.061,-0.282C0.069,-0.317 0.08,-0.35 0.095,-0.381C0.11,-0.412 0.128,-0.439 0.149,-0.463C0.171,-0.487 0.196,-0.506 0.224,-0.52C0.252,-0.534 0.282,-0.541 0.316,-0.541C0.344,-0.541 0.368,-0.535 0.387,-0.523C0.406,-0.511 0.42,-0.496 0.431,-0.479C0.442,-0.461 0.45,-0.443 0.455,-0.424L0.458,-0.424L0.486,-0.531L0.525,-0.531L0.413,-0L0.373,-0L0.395,-0.124L0.393,-0.124C0.38,-0.104 0.364,-0.084 0.344,-0.063C0.324,-0.043 0.302,-0.025 0.277,-0.011C0.251,0.003 0.224,0.01 0.195,0.01ZM0.208,-0.033C0.236,-0.033 0.265,-0.043 0.294,-0.064C0.323,-0.084 0.348,-0.112 0.371,-0.147C0.394,-0.182 0.41,-0.221 0.42,-0.265C0.424,-0.285 0.428,-0.303 0.429,-0.318C0.431,-0.333 0.432,-0.347 0.432,-0.36C0.432,-0.403 0.422,-0.437 0.402,-0.461C0.382,-0.485 0.354,-0.498 0.319,-0.498C0.292,-0.498 0.266,-0.492 0.244,-0.479C0.221,-0.467 0.201,-0.451 0.183,-0.43C0.166,-0.409 0.151,-0.384 0.138,-0.357C0.126,-0.33 0.117,-0.3 0.11,-0.27C0.104,-0.239 0.101,-0.207 0.101,-0.176C0.101,-0.131 0.11,-0.096 0.128,-0.071C0.146,-0.046 0.173,-0.033 0.208,-0.033Z" style="fill-rule:nonzero;"/>
        </g>
        <g transform="matrix(18,0,0,18,536.242,357.969)">
            <path d="M0.161,0.01C0.127,0.01 0.1,0.001 0.082,-0.015C0.063,-0.032 0.053,-0.057 0.053,-0.091C0.053,-0.1 0.054,-0.11 0.055,-0.121C0.056,-0.132 0.058,-0.143 0.061,-0.154L0.132,-0.49L0.053,-0.49L0.059,-0.519L0.141,-0.535L0.185,-0.659L0.218,-0.659L0.19,-0.531L0.343,-0.531L0.334,-0.49L0.182,-0.49L0.111,-0.156C0.109,-0.145 0.107,-0.135 0.105,-0.125C0.104,-0.115 0.103,-0.105 0.103,-0.097C0.103,-0.077 0.108,-0.062 0.118,-0.05C0.127,-0.038 0.144,-0.033 0.167,-0.033C0.181,-0.033 0.194,-0.034 0.206,-0.036C0.218,-0.038 0.23,-0.042 0.241,-0.045L0.241,-0.005C0.231,-0.001 0.22,0.002 0.206,0.005C0.192,0.008 0.177,0.01 0.161,0.01Z" style="fill-rule:nonzero;"/>
        </g>
        <g transform="matrix(18,0,0,18,541.964,357.969)">
            <path d="M0.189,0.01C0.161,0.01 0.137,0.005 0.117,-0.005C0.097,-0.015 0.082,-0.03 0.071,-0.049C0.06,-0.069 0.055,-0.093 0.055,-0.121C0.055,-0.132 0.056,-0.144 0.058,-0.157C0.06,-0.169 0.062,-0.182 0.064,-0.195L0.135,-0.531L0.185,-0.531L0.112,-0.189C0.11,-0.177 0.108,-0.165 0.106,-0.155C0.105,-0.145 0.104,-0.135 0.104,-0.127C0.104,-0.095 0.113,-0.072 0.129,-0.056C0.146,-0.041 0.17,-0.033 0.202,-0.033C0.233,-0.033 0.264,-0.043 0.295,-0.063C0.325,-0.083 0.352,-0.111 0.375,-0.147C0.399,-0.183 0.415,-0.225 0.425,-0.273L0.48,-0.531L0.529,-0.531L0.416,-0L0.375,-0L0.397,-0.124L0.394,-0.124C0.382,-0.105 0.367,-0.085 0.347,-0.064C0.328,-0.044 0.305,-0.026 0.279,-0.012C0.253,0.003 0.223,0.01 0.189,0.01Z" style="fill-rule:nonzero;"/>
        </g>
        <g transform="matrix(18,0,0,18,552.098,357.969)">
            <path d="M0.031,-0L0.143,-0.531L0.184,-0.531L0.163,-0.407L0.166,-0.407C0.177,-0.426 0.192,-0.446 0.209,-0.466C0.227,-0.487 0.247,-0.504 0.271,-0.519C0.294,-0.533 0.32,-0.54 0.349,-0.54C0.36,-0.54 0.37,-0.539 0.38,-0.538C0.39,-0.536 0.399,-0.534 0.408,-0.532L0.397,-0.487C0.389,-0.489 0.381,-0.491 0.373,-0.492C0.364,-0.493 0.355,-0.494 0.345,-0.494C0.321,-0.494 0.298,-0.488 0.275,-0.475C0.253,-0.462 0.232,-0.445 0.213,-0.423C0.194,-0.401 0.178,-0.376 0.165,-0.347C0.151,-0.319 0.141,-0.29 0.134,-0.258L0.08,-0L0.031,-0Z" style="fill-rule:nonzero;"/>
        </g>
        <g transform="matrix(18,0,0,18,558.944,357.969)">
            <path d="M0.245,0.01C0.21,0.01 0.178,0.002 0.15,-0.012C0.121,-0.027 0.099,-0.049 0.082,-0.079C0.065,-0.109 0.057,-0.147 0.057,-0.193C0.057,-0.239 0.063,-0.284 0.077,-0.325C0.09,-0.367 0.109,-0.404 0.133,-0.436C0.157,-0.469 0.185,-0.494 0.218,-0.513C0.251,-0.532 0.287,-0.541 0.327,-0.541C0.369,-0.541 0.402,-0.53 0.426,-0.509C0.45,-0.487 0.462,-0.459 0.462,-0.423C0.462,-0.393 0.454,-0.366 0.439,-0.344C0.424,-0.322 0.402,-0.304 0.374,-0.29C0.345,-0.275 0.311,-0.264 0.271,-0.257C0.231,-0.25 0.187,-0.247 0.138,-0.247L0.11,-0.247C0.109,-0.24 0.109,-0.232 0.108,-0.222C0.107,-0.213 0.107,-0.203 0.107,-0.194C0.107,-0.143 0.12,-0.103 0.146,-0.075C0.171,-0.047 0.207,-0.033 0.253,-0.033C0.281,-0.033 0.306,-0.037 0.329,-0.044C0.352,-0.052 0.373,-0.06 0.393,-0.069L0.393,-0.024C0.374,-0.015 0.352,-0.007 0.327,-0C0.302,0.006 0.275,0.01 0.245,0.01ZM0.118,-0.289L0.15,-0.289C0.2,-0.289 0.245,-0.294 0.284,-0.302C0.324,-0.311 0.355,-0.326 0.378,-0.345C0.402,-0.364 0.413,-0.389 0.413,-0.419C0.413,-0.442 0.406,-0.461 0.39,-0.476C0.375,-0.491 0.353,-0.498 0.322,-0.498C0.294,-0.498 0.266,-0.49 0.239,-0.474C0.211,-0.457 0.187,-0.434 0.165,-0.402C0.144,-0.371 0.128,-0.333 0.118,-0.289Z" style="fill-rule:nonzero;"/>
        </g>
        <g transform="matrix(18,0,0,18,567.839,357.969)">
            <path d="M0.161,0.01C0.127,0.01 0.097,0.006 0.072,-0.001C0.047,-0.009 0.026,-0.017 0.01,-0.026L0.01,-0.075C0.028,-0.064 0.051,-0.054 0.077,-0.046C0.104,-0.037 0.131,-0.033 0.16,-0.033C0.193,-0.033 0.22,-0.037 0.24,-0.046C0.261,-0.056 0.276,-0.068 0.286,-0.084C0.296,-0.1 0.301,-0.119 0.301,-0.14C0.301,-0.159 0.296,-0.175 0.288,-0.188C0.279,-0.2 0.267,-0.212 0.251,-0.222C0.235,-0.232 0.217,-0.243 0.196,-0.254C0.173,-0.267 0.153,-0.28 0.134,-0.293C0.116,-0.306 0.102,-0.32 0.091,-0.337C0.081,-0.353 0.076,-0.373 0.076,-0.397C0.076,-0.429 0.083,-0.455 0.099,-0.477C0.114,-0.498 0.135,-0.514 0.162,-0.525C0.189,-0.536 0.219,-0.541 0.252,-0.541C0.284,-0.541 0.313,-0.538 0.338,-0.531C0.363,-0.525 0.385,-0.517 0.404,-0.508L0.388,-0.466C0.371,-0.475 0.351,-0.482 0.327,-0.488C0.304,-0.494 0.279,-0.498 0.252,-0.498C0.215,-0.498 0.185,-0.49 0.161,-0.474C0.137,-0.458 0.125,-0.433 0.125,-0.4C0.125,-0.383 0.129,-0.369 0.137,-0.357C0.146,-0.345 0.158,-0.334 0.173,-0.325C0.189,-0.315 0.207,-0.304 0.228,-0.293C0.249,-0.281 0.27,-0.268 0.289,-0.255C0.307,-0.243 0.323,-0.228 0.334,-0.21C0.346,-0.193 0.352,-0.171 0.352,-0.144C0.352,-0.113 0.344,-0.087 0.33,-0.063C0.316,-0.04 0.295,-0.022 0.266,-0.01C0.238,0.003 0.203,0.01 0.161,0.01Z" style="fill-rule:nonzero;"/>
        </g>
        <g transform="matrix(18,0,0,18,580.188,357.969)">
            <path d="M0.161,0.01C0.127,0.01 0.1,0.001 0.082,-0.015C0.063,-0.032 0.053,-0.057 0.053,-0.091C0.053,-0.1 0.054,-0.11 0.055,-0.121C0.056,-0.132 0.058,-0.143 0.061,-0.154L0.132,-0.49L0.053,-0.49L0.059,-0.519L0.141,-0.535L0.185,-0.659L0.218,-0.659L0.19,-0.531L0.343,-0.531L0.334,-0.49L0.182,-0.49L0.111,-0.156C0.109,-0.145 0.107,-0.135 0.105,-0.125C0.104,-0.115 0.103,-0.105 0.103,-0.097C0.103,-0.077 0.108,-0.062 0.118,-0.05C0.127,-0.038 0.144,-0.033 0.167,-0.033C0.181,-0.033 0.194,-0.034 0.206,-0.036C0.218,-0.038 0.23,-0.042 0.241,-0.045L0.241,-0.005C0.231,-0.001 0.22,0.002 0.206,0.005C0.192,0.008 0.177,0.01 0.161,0.01Z" style="fill-rule:nonzero;"/>
        </g>
        <g transform="matrix(18,0,0,18,585.909,357.969)">
            <path d="M0.241,0.009C0.2,0.009 0.165,0 0.137,-0.017C0.109,-0.034 0.088,-0.057 0.074,-0.088C0.06,-0.118 0.053,-0.154 0.053,-0.194C0.053,-0.233 0.057,-0.27 0.065,-0.304C0.073,-0.339 0.086,-0.37 0.101,-0.399C0.117,-0.428 0.136,-0.453 0.158,-0.474C0.181,-0.495 0.206,-0.511 0.234,-0.523C0.262,-0.534 0.293,-0.54 0.325,-0.54C0.366,-0.54 0.4,-0.531 0.427,-0.514C0.455,-0.497 0.476,-0.473 0.49,-0.443C0.505,-0.412 0.512,-0.377 0.512,-0.337C0.512,-0.301 0.508,-0.266 0.501,-0.232C0.493,-0.199 0.482,-0.167 0.467,-0.138C0.452,-0.108 0.433,-0.083 0.411,-0.061C0.389,-0.039 0.364,-0.022 0.336,-0.01C0.307,0.003 0.276,0.009 0.241,0.009ZM0.245,-0.034C0.271,-0.034 0.295,-0.039 0.318,-0.049C0.34,-0.059 0.36,-0.073 0.378,-0.091C0.395,-0.109 0.411,-0.131 0.423,-0.156C0.436,-0.182 0.445,-0.21 0.452,-0.241C0.458,-0.272 0.461,-0.306 0.461,-0.341C0.461,-0.37 0.457,-0.396 0.447,-0.42C0.437,-0.443 0.422,-0.462 0.402,-0.476C0.382,-0.49 0.356,-0.497 0.325,-0.497C0.299,-0.497 0.274,-0.492 0.252,-0.483C0.229,-0.473 0.209,-0.46 0.191,-0.442C0.172,-0.424 0.157,-0.403 0.144,-0.377C0.131,-0.352 0.121,-0.324 0.114,-0.293C0.107,-0.262 0.103,-0.229 0.103,-0.193C0.103,-0.144 0.115,-0.105 0.139,-0.076C0.163,-0.048 0.198,-0.034 0.245,-0.034Z" style="fill-rule:nonzero;"/>
        </g>
        <g transform="matrix(18,0,0,18,600.736,357.969)">
            <path d="M-0.045,0.242C-0.059,0.242 -0.071,0.241 -0.08,0.24C-0.089,0.238 -0.098,0.235 -0.106,0.232L-0.106,0.189C-0.098,0.192 -0.089,0.194 -0.08,0.196C-0.07,0.198 -0.059,0.199 -0.046,0.199C-0.021,0.199 0.002,0.19 0.021,0.172C0.041,0.154 0.061,0.127 0.082,0.09L0.135,-0.001L0.049,-0.531L0.099,-0.531L0.148,-0.209C0.152,-0.188 0.155,-0.168 0.157,-0.148C0.159,-0.128 0.161,-0.109 0.163,-0.093C0.164,-0.076 0.165,-0.062 0.166,-0.05L0.168,-0.05C0.173,-0.06 0.179,-0.073 0.187,-0.089C0.195,-0.105 0.203,-0.123 0.213,-0.141C0.222,-0.16 0.232,-0.178 0.242,-0.196L0.427,-0.531L0.48,-0.531L0.125,0.106C0.109,0.135 0.093,0.16 0.076,0.18C0.059,0.2 0.041,0.216 0.022,0.226C0.002,0.237 -0.02,0.242 -0.045,0.242Z" style="fill-rule:nonzero;"/>
        </g>
        <g transform="matrix(18,0,0,18,608.497,357.969)">
            <path d="M0.241,0.009C0.2,0.009 0.165,0 0.137,-0.017C0.109,-0.034 0.088,-0.057 0.074,-0.088C0.06,-0.118 0.053,-0.154 0.053,-0.194C0.053,-0.233 0.057,-0.27 0.065,-0.304C0.073,-0.339 0.086,-0.37 0.101,-0.399C0.117,-0.428 0.136,-0.453 0.158,-0.474C0.181,-0.495 0.206,-0.511 0.234,-0.523C0.262,-0.534 0.293,-0.54 0.325,-0.54C0.366,-0.54 0.4,-0.531 0.427,-0.514C0.455,-0.497 0.476,-0.473 0.49,-0.443C0.505,-0.412 0.512,-0.377 0.512,-0.337C0.512,-0.301 0.508,-0.266 0.501,-0.232C0.493,-0.199 0.482,-0.167 0.467,-0.138C0.452,-0.108 0.433,-0.083 0.411,-0.061C0.389,-0.039 0.364,-0.022 0.336,-0.01C0.307,0.003 0.276,0.009 0.241,0.009ZM0.245,-0.034C0.271,-0.034 0.295,-0.039 0.318,-0.049C0.34,-0.059 0.36,-0.073 0.378,-0.091C0.395,-0.109 0.411,-0.131 0.423,-0.156C0.436,-0.182 0.445,-0.21 0.452,-0.241C0.458,-0.272 0.461,-0.306 0.461,-0.341C0.461,-0.37 0.457,-0.396 0.447,-0.42C0.437,-0.443 0.422,-0.462 0.402,-0.476C0.382,-0.49 0.356,-0.497 0.325,-0.497C0.299,-0.497 0.274,-0.492 0.252,-0.483C0.229,-0.473 0.209,-0.46 0.191,-0.442C0.172,-0.424 0.157,-0.403 0.144,-0.377C0.131,-0.352 0.121,-0.324 0.114,-0.293C0.107,-0.262 0.103,-0.229 0.103,-0.193C0.103,-0.144 0.115,-0.105 0.139,-0.076C0.163,-0.048 0.198,-0.034 0.245,-0.034Z" style="fill-rule:nonzero;"/>
        </g>
        <g transform="matrix(18,0,0,18,618.649,357.969)">
            <path d="M0.189,0.01C0.161,0.01 0.137,0.005 0.117,-0.005C0.097,-0.015 0.082,-0.03 0.071,-0.049C0.06,-0.069 0.055,-0.093 0.055,-0.121C0.055,-0.132 0.056,-0.144 0.058,-0.157C0.06,-0.169 0.062,-0.182 0.064,-0.195L0.135,-0.531L0.185,-0.531L0.112,-0.189C0.11,-0.177 0.108,-0.165 0.106,-0.155C0.105,-0.145 0.104,-0.135 0.104,-0.127C0.104,-0.095 0.113,-0.072 0.129,-0.056C0.146,-0.041 0.17,-0.033 0.202,-0.033C0.233,-0.033 0.264,-0.043 0.295,-0.063C0.325,-0.083 0.352,-0.111 0.375,-0.147C0.399,-0.183 0.415,-0.225 0.425,-0.273L0.48,-0.531L0.529,-0.531L0.416,-0L0.375,-0L0.397,-0.124L0.394,-0.124C0.382,-0.105 0.367,-0.085 0.347,-0.064C0.328,-0.044 0.305,-0.026 0.279,-0.012C0.253,0.003 0.223,0.01 0.189,0.01Z" style="fill-rule:nonzero;"/>
        </g>
        <g transform="matrix(18,0,0,18,628.782,357.969)">
            <path d="M0.031,-0L0.143,-0.531L0.184,-0.531L0.163,-0.407L0.166,-0.407C0.177,-0.426 0.192,-0.446 0.209,-0.466C0.227,-0.487 0.247,-0.504 0.271,-0.519C0.294,-0.533 0.32,-0.54 0.349,-0.54C0.36,-0.54 0.37,-0.539 0.38,-0.538C0.39,-0.536 0.399,-0.534 0.408,-0.532L0.397,-0.487C0.389,-0.489 0.381,-0.491 0.373,-0.492C0.364,-0.493 0.355,-0.494 0.345,-0.494C0.321,-0.494 0.298,-0.488 0.275,-0.475C0.253,-0.462 0.232,-0.445 0.213,-0.423C0.194,-0.401 0.178,-0.376 0.165,-0.347C0.151,-0.319 0.141,-0.29 0.134,-0.258L0.08,-0L0.031,-0Z" style="fill-rule:nonzero;"/>
        </g>
        <g transform="matrix(18,0,0,18,640.305,357.969)">
            <path d="M-0.019,0.235L0.143,-0.531L0.184,-0.531L0.162,-0.407L0.165,-0.407C0.179,-0.429 0.195,-0.45 0.215,-0.47C0.235,-0.491 0.257,-0.508 0.283,-0.521C0.308,-0.534 0.336,-0.541 0.367,-0.541C0.398,-0.541 0.425,-0.533 0.448,-0.518C0.471,-0.503 0.488,-0.482 0.501,-0.454C0.513,-0.427 0.52,-0.393 0.52,-0.354C0.52,-0.319 0.516,-0.284 0.508,-0.25C0.501,-0.215 0.49,-0.182 0.476,-0.151C0.461,-0.12 0.443,-0.092 0.421,-0.068C0.4,-0.044 0.374,-0.025 0.346,-0.011C0.317,0.003 0.285,0.01 0.25,0.01C0.22,0.01 0.195,0.004 0.175,-0.007C0.155,-0.018 0.139,-0.033 0.127,-0.051C0.115,-0.068 0.106,-0.087 0.101,-0.106L0.098,-0.106C0.096,-0.089 0.093,-0.069 0.089,-0.047C0.085,-0.025 0.081,-0.005 0.077,0.013L0.03,0.235L-0.019,0.235ZM0.249,-0.033C0.277,-0.033 0.303,-0.039 0.326,-0.052C0.349,-0.064 0.37,-0.08 0.387,-0.102C0.405,-0.123 0.42,-0.148 0.432,-0.175C0.444,-0.203 0.453,-0.232 0.459,-0.263C0.466,-0.293 0.469,-0.324 0.469,-0.355C0.469,-0.4 0.459,-0.435 0.439,-0.46C0.419,-0.485 0.39,-0.498 0.353,-0.498C0.333,-0.498 0.314,-0.493 0.295,-0.485C0.276,-0.477 0.258,-0.465 0.24,-0.45C0.223,-0.435 0.208,-0.417 0.193,-0.396C0.179,-0.376 0.167,-0.354 0.156,-0.329C0.146,-0.305 0.138,-0.279 0.132,-0.252C0.126,-0.225 0.123,-0.198 0.123,-0.17C0.123,-0.126 0.134,-0.092 0.157,-0.068C0.179,-0.045 0.21,-0.033 0.249,-0.033Z" style="fill-rule:nonzero;"/>
        </g>
        <g transform="matrix(18,0,0,18,650.597,357.969)">
            <path d="M0.031,-0L0.143,-0.531L0.184,-0.531L0.163,-0.407L0.166,-0.407C0.177,-0.426 0.192,-0.446 0.209,-0.466C0.227,-0.487 0.247,-0.504 0.271,-0.519C0.294,-0.533 0.32,-0.54 0.349,-0.54C0.36,-0.54 0.37,-0.539 0.38,-0.538C0.39,-0.536 0.399,-0.534 0.408,-0.532L0.397,-0.487C0.389,-0.489 0.381,-0.491 0.373,-0.492C0.364,-0.493 0.355,-0.494 0.345,-0.494C0.321,-0.494 0.298,-0.488 0.275,-0.475C0.253,-0.462 0.232,-0.445 0.213,-0.423C0.194,-0.401 0.178,-0.376 0.165,-0.347C0.151,-0.319 0.141,-0.29 0.134,-0.258L0.08,-0L0.031,-0Z" style="fill-rule:nonzero;"/>
        </g>
        <g transform="matrix(18,0,0,18,657.443,357.969)">
            <path d="M0.241,0.009C0.2,0.009 0.165,0 0.137,-0.017C0.109,-0.034 0.088,-0.057 0.074,-0.088C0.06,-0.118 0.053,-0.154 0.053,-0.194C0.053,-0.233 0.057,-0.27 0.065,-0.304C0.073,-0.339 0.086,-0.37 0.101,-0.399C0.117,-0.428 0.136,-0.453 0.158,-0.474C0.181,-0.495 0.206,-0.511 0.234,-0.523C0.262,-0.534 0.293,-0.54 0.325,-0.54C0.366,-0.54 0.4,-0.531 0.427,-0.514C0.455,-0.497 0.476,-0.473 0.49,-0.443C0.505,-0.412 0.512,-0.377 0.512,-0.337C0.512,-0.301 0.508,-0.266 0.501,-0.232C0.493,-0.199 0.482,-0.167 0.467,-0.138C0.452,-0.108 0.433,-0.083 0.411,-0.061C0.389,-0.039 0.364,-0.022 0.336,-0.01C0.307,0.003 0.276,0.009 0.241,0.009ZM0.245,-0.034C0.271,-0.034 0.295,-0.039 0.318,-0.049C0.34,-0.059 0.36,-0.073 0.378,-0.091C0.395,-0.109 0.411,-0.131 0.423,-0.156C0.436,-0.182 0.445,-0.21 0.452,-0.241C0.458,-0.272 0.461,-0.306 0.461,-0.341C0.461,-0.37 0.457,-0.396 0.447,-0.42C0.437,-0.443 0.422,-0.462 0.402,-0.476C0.382,-0.49 0.356,-0.497 0.325,-0.497C0.299,-0.497 0.274,-0.492 0.252,-0.483C0.229,-0.473 0.209,-0.46 0.191,-0.442C0.172,-0.424 0.157,-0.403 0.144,-0.377C0.131,-0.352 0.121,-0.324 0.114,-0.293C0.107,-0.262 0.103,-0.229 0.103,-0.193C0.103,-0.144 0.115,-0.105 0.139,-0.076C0.163,-0.048 0.198,-0.034 0.245,-0.034Z" style="fill-rule:nonzero;"/>
        </g>
        <g transform="matrix(18,0,0,18,667.595,357.969)">
            <path d="M-0.078,0.24C-0.088,0.24 -0.099,0.239 -0.11,0.237C-0.121,0.235 -0.129,0.233 -0.136,0.23L-0.136,0.186C-0.128,0.19 -0.119,0.192 -0.108,0.194C-0.098,0.196 -0.088,0.197 -0.079,0.197C-0.063,0.197 -0.049,0.193 -0.037,0.186C-0.025,0.178 -0.016,0.167 -0.008,0.152C-0,0.137 0.006,0.119 0.01,0.098L0.143,-0.531L0.192,-0.531L0.058,0.104C0.052,0.133 0.043,0.158 0.032,0.178C0.02,0.198 0.006,0.214 -0.012,0.224C-0.03,0.235 -0.052,0.24 -0.078,0.24ZM0.198,-0.646C0.188,-0.646 0.181,-0.649 0.175,-0.655C0.169,-0.66 0.166,-0.668 0.166,-0.678C0.166,-0.686 0.167,-0.694 0.17,-0.701C0.173,-0.709 0.178,-0.715 0.184,-0.719C0.19,-0.724 0.198,-0.727 0.207,-0.727C0.217,-0.727 0.225,-0.724 0.23,-0.718C0.235,-0.712 0.237,-0.705 0.237,-0.696C0.237,-0.683 0.233,-0.671 0.226,-0.661C0.218,-0.651 0.209,-0.646 0.198,-0.646Z" style="fill-rule:nonzero;"/>
        </g>
        <g transform="matrix(18,0,0,18,671.664,357.969)">
            <path d="M0.245,0.01C0.21,0.01 0.178,0.002 0.15,-0.012C0.121,-0.027 0.099,-0.049 0.082,-0.079C0.065,-0.109 0.057,-0.147 0.057,-0.193C0.057,-0.239 0.063,-0.284 0.077,-0.325C0.09,-0.367 0.109,-0.404 0.133,-0.436C0.157,-0.469 0.185,-0.494 0.218,-0.513C0.251,-0.532 0.287,-0.541 0.327,-0.541C0.369,-0.541 0.402,-0.53 0.426,-0.509C0.45,-0.487 0.462,-0.459 0.462,-0.423C0.462,-0.393 0.454,-0.366 0.439,-0.344C0.424,-0.322 0.402,-0.304 0.374,-0.29C0.345,-0.275 0.311,-0.264 0.271,-0.257C0.231,-0.25 0.187,-0.247 0.138,-0.247L0.11,-0.247C0.109,-0.24 0.109,-0.232 0.108,-0.222C0.107,-0.213 0.107,-0.203 0.107,-0.194C0.107,-0.143 0.12,-0.103 0.146,-0.075C0.171,-0.047 0.207,-0.033 0.253,-0.033C0.281,-0.033 0.306,-0.037 0.329,-0.044C0.352,-0.052 0.373,-0.06 0.393,-0.069L0.393,-0.024C0.374,-0.015 0.352,-0.007 0.327,-0C0.302,0.006 0.275,0.01 0.245,0.01ZM0.118,-0.289L0.15,-0.289C0.2,-0.289 0.245,-0.294 0.284,-0.302C0.324,-0.311 0.355,-0.326 0.378,-0.345C0.402,-0.364 0.413,-0.389 0.413,-0.419C0.413,-0.442 0.406,-0.461 0.39,-0.476C0.375,-0.491 0.353,-0.498 0.322,-0.498C0.294,-0.498 0.266,-0.49 0.239,-0.474C0.211,-0.457 0.187,-0.434 0.165,-0.402C0.144,-0.371 0.128,-0.333 0.118,-0.289Z" style="fill-rule:nonzero;"/>
        </g>
        <g transform="matrix(18,0,0,18,680.559,357.969)">
            <path d="M0.247,0.01C0.206,0.01 0.172,0.001 0.143,-0.015C0.114,-0.032 0.091,-0.056 0.076,-0.086C0.06,-0.116 0.053,-0.152 0.053,-0.192C0.053,-0.229 0.057,-0.265 0.065,-0.3C0.073,-0.334 0.084,-0.366 0.1,-0.396C0.116,-0.425 0.135,-0.45 0.157,-0.472C0.18,-0.494 0.206,-0.51 0.236,-0.523C0.265,-0.535 0.297,-0.541 0.333,-0.541C0.355,-0.541 0.378,-0.539 0.4,-0.535C0.422,-0.53 0.442,-0.524 0.459,-0.517L0.445,-0.473C0.43,-0.481 0.412,-0.487 0.392,-0.491C0.372,-0.495 0.352,-0.498 0.333,-0.498C0.298,-0.498 0.266,-0.49 0.238,-0.474C0.209,-0.458 0.185,-0.436 0.165,-0.408C0.145,-0.38 0.13,-0.348 0.119,-0.311C0.108,-0.275 0.103,-0.236 0.103,-0.194C0.103,-0.163 0.109,-0.135 0.12,-0.111C0.131,-0.087 0.148,-0.068 0.17,-0.054C0.192,-0.04 0.219,-0.033 0.251,-0.033C0.275,-0.033 0.297,-0.036 0.317,-0.042C0.338,-0.047 0.358,-0.055 0.379,-0.064L0.379,-0.02C0.362,-0.012 0.343,-0.004 0.321,0.001C0.299,0.007 0.274,0.01 0.247,0.01Z" style="fill-rule:nonzero;"/>
        </g>
        <g transform="matrix(18,0,0,18,688.706,357.969)">
            <path d="M0.161,0.01C0.127,0.01 0.1,0.001 0.082,-0.015C0.063,-0.032 0.053,-0.057 0.053,-0.091C0.053,-0.1 0.054,-0.11 0.055,-0.121C0.056,-0.132 0.058,-0.143 0.061,-0.154L0.132,-0.49L0.053,-0.49L0.059,-0.519L0.141,-0.535L0.185,-0.659L0.218,-0.659L0.19,-0.531L0.343,-0.531L0.334,-0.49L0.182,-0.49L0.111,-0.156C0.109,-0.145 0.107,-0.135 0.105,-0.125C0.104,-0.115 0.103,-0.105 0.103,-0.097C0.103,-0.077 0.108,-0.062 0.118,-0.05C0.127,-0.038 0.144,-0.033 0.167,-0.033C0.181,-0.033 0.194,-0.034 0.206,-0.036C0.218,-0.038 0.23,-0.042 0.241,-0.045L0.241,-0.005C0.231,-0.001 0.22,0.002 0.206,0.005C0.192,0.008 0.177,0.01 0.161,0.01Z" style="fill-rule:nonzero;"/>
        </g>
        <g transform="matrix(18,0,0,18,694.428,357.969)">
            <path d="M0.062,0.01C0.051,0.01 0.042,0.007 0.037,0.001C0.031,-0.004 0.028,-0.013 0.028,-0.023C0.028,-0.037 0.032,-0.05 0.039,-0.062C0.047,-0.073 0.059,-0.079 0.075,-0.079C0.086,-0.079 0.094,-0.076 0.099,-0.07C0.105,-0.064 0.107,-0.056 0.107,-0.045C0.107,-0.032 0.104,-0.019 0.096,-0.008C0.088,0.004 0.077,0.01 0.062,0.01Z" style="fill-rule:nonzero;"/>
        </g>
        <g transform="matrix(18,0,0,18,698.515,357.969)">
            <path d="M0.062,0.01C0.051,0.01 0.042,0.007 0.037,0.001C0.031,-0.004 0.028,-0.013 0.028,-0.023C0.028,-0.037 0.032,-0.05 0.039,-0.062C0.047,-0.073 0.059,-0.079 0.075,-0.079C0.086,-0.079 0.094,-0.076 0.099,-0.07C0.105,-0.064 0.107,-0.056 0.107,-0.045C0.107,-0.032 0.104,-0.019 0.096,-0.008C0.088,0.004 0.077,0.01 0.062,0.01Z" style="fill-rule:nonzero;"/>
        </g>
        <g transform="matrix(18,0,0,18,702.602,357.969)">
            <path d="M0.062,0.01C0.051,0.01 0.042,0.007 0.037,0.001C0.031,-0.004 0.028,-0.013 0.028,-0.023C0.028,-0.037 0.032,-0.05 0.039,-0.062C0.047,-0.073 0.059,-0.079 0.075,-0.079C0.086,-0.079 0.094,-0.076 0.099,-0.07C0.105,-0.064 0.107,-0.056 0.107,-0.045C0.107,-0.032 0.104,-0.019 0.096,-0.008C0.088,0.004 0.077,0.01 0.062,0.01Z" style="fill-rule:nonzero;"/>
        </g>
    </g>
    <g transform="matrix(1.85678,0,0,1.85678,93.5674,123.561)">
        <path d="M86.263,98.481L62.784,98.481C62.804,98.293 62.816,90.646 62.816,90.646L80.309,90.646C83.197,90.646 85.539,88.304 85.539,85.416L85.539,73.799C85.539,71.671 84.71,69.669 83.204,68.165L62.552,47.512C62.642,44.161 62.712,40.809 62.77,37.457C63.341,27.231 60.439,16.685 53.648,8.859C51.901,6.849 49.958,4.966 47.623,3.545C46.529,2.928 45.496,2.362 44.102,2.336C42.706,2.373 41.682,2.941 40.594,3.565C38.275,5.004 36.353,6.9 34.629,8.921C34.391,9.203 34.165,9.493 33.936,9.782L33.936,2.329C33.936,1.043 32.894,0 31.607,0L8.845,0C7.559,0 6.516,1.043 6.516,2.329L6.516,66.648L5,68.165C3.494,69.669 2.666,71.671 2.666,73.799L2.666,85.417C2.666,87.827 4.298,89.851 6.516,90.456L6.516,98.481L1.941,98.481C0.869,98.481 0,99.35 0,100.422L0,101.198C0,102.27 0.869,103.139 1.941,103.139L86.263,103.139C87.334,103.139 88.203,102.27 88.203,101.198L88.203,100.422C88.203,99.35 87.334,98.481 86.263,98.481ZM26.225,27.42C26.107,28.12 26.007,28.823 25.927,29.528L20.323,34.422L12.305,27.42L26.225,27.42L26.225,27.42ZM14.38,22.762L20.2,16.107L26.019,22.762L14.38,22.762ZM25.855,45.364C25.856,45.417 25.857,45.471 25.858,45.524L14.19,45.524L20.092,38.765L25.855,45.364ZM25.745,39.157L22.344,36.186L25.702,32.34C25.7,32.394 25.695,32.447 25.692,32.501C25.697,34.72 25.717,36.938 25.745,39.157ZM29.35,17.261C29.095,17.813 28.855,18.371 28.626,18.933L22.45,13.533L29.278,5.724L29.278,16.713C29.278,16.903 29.307,17.085 29.35,17.261ZM28.099,4.658L20.2,11.565L12.3,4.658L28.099,4.658ZM11.174,5.785L17.949,13.533L11.174,19.457L11.174,5.785ZM11.174,28.551L18.04,36.414L11.174,42.41L11.174,28.551ZM11.174,50.182L22.982,50.182L11.174,61.99L11.174,50.182ZM11.174,90.646L25.388,90.646C25.388,90.646 25.4,98.293 25.421,98.481L11.174,98.481L11.174,90.646ZM46.44,98.481C46.463,95.965 46.454,93.449 46.402,90.934C46.363,87.9 46.279,84.867 46.165,81.834C45.944,75.767 45.642,69.7 44.811,63.634C44.769,63.323 44.525,63.066 44.199,63.021C43.807,62.968 43.446,63.242 43.393,63.634C42.562,69.7 42.26,75.767 42.039,81.834C41.925,84.867 41.841,87.9 41.802,90.934C41.75,93.449 41.741,95.965 41.764,98.481L30.617,98.481C30.303,98.481 30.046,98.224 30.046,97.91L30.046,87.929C30.046,86.857 29.177,85.988 28.105,85.988L7.895,85.988C7.581,85.988 7.324,85.731 7.324,85.417L7.324,73.799C7.324,72.921 7.672,72.079 8.293,71.458C8.293,71.458 10.493,69.259 10.494,69.257L26.069,53.682C26.312,61.177 26.662,68.671 27.095,76.165C27.114,76.474 27.361,76.729 27.678,76.748C28.022,76.77 28.317,76.509 28.339,76.165C29.194,62.457 29.538,48.748 29.777,35.037C29.845,26.707 32.803,18.34 38.285,12.057C39.971,10.221 41.807,8.315 44.093,7.374C46.364,8.347 48.183,10.264 49.846,12.12C51.788,14.38 53.387,16.956 54.694,19.663C57.399,25.159 58.297,31.369 58.204,37.457C58.428,50.373 58.821,63.277 59.888,76.165C59.912,76.451 60.14,76.687 60.436,76.713C60.767,76.741 61.058,76.496 61.087,76.165C61.701,68.748 62.087,61.325 62.351,53.898L79.911,71.458C80.532,72.079 80.881,72.921 80.881,73.799L80.881,85.416C80.881,85.732 80.625,85.988 80.309,85.988L60.099,85.988C59.027,85.988 58.158,86.857 58.158,87.929L58.158,97.91C58.158,98.224 57.901,98.481 57.587,98.481L46.44,98.481Z" style="fill-rule:nonzero;"/>
    </g>
</svg>
